<svg xmlns="http://www.w3.org/2000/svg" xmlns:xlink="http://www.w3.org/1999/xlink" width="145" zoomAndPan="magnify" viewBox="0 0 108.75 149.999998" height="200" preserveAspectRatio="xMidYMid meet" version="1.0"><defs><filter x="0%" y="0%" width="100%" height="100%" id="39350f6d15"><feColorMatrix values="0 0 0 0 1 0 0 0 0 1 0 0 0 0 1 0 0 0 1 0" color-interpolation-filters="sRGB"/></filter><g/><clipPath id="e396739b38"><path d="M 0 0.171875 L 108.5 0.171875 L 108.5 149.828125 L 0 149.828125 Z M 0 0.171875 " clip-rule="nonzero"/></clipPath><mask id="1d9ea5b366"><g filter="url(#39350f6d15)"><rect x="-10.875" width="130.5" fill="#000000" y="-15" height="179.999997" fill-opacity="0.91"/></g></mask><clipPath id="8c59b5b4e5"><path d="M 0 0.171875 L 108.5 0.171875 L 108.5 149.828125 L 0 149.828125 Z M 0 0.171875 " clip-rule="nonzero"/></clipPath><clipPath id="332e2265b3"><path d="M 7.867188 7.730469 L 100.957031 7.730469 L 100.957031 142.105469 L 7.867188 142.105469 Z M 7.867188 7.730469 " clip-rule="nonzero"/></clipPath><clipPath id="d95872eae8"><path d="M 10.113281 7.730469 L 98.714844 7.730469 C 99.308594 7.730469 99.878906 7.964844 100.300781 8.386719 C 100.722656 8.808594 100.957031 9.378906 100.957031 9.972656 L 100.957031 139.863281 C 100.957031 140.457031 100.722656 141.03125 100.300781 141.449219 C 99.878906 141.871094 99.308594 142.109375 98.714844 142.109375 L 10.113281 142.109375 C 9.515625 142.109375 8.945312 141.871094 8.523438 141.449219 C 8.101562 141.03125 7.867188 140.457031 7.867188 139.863281 L 7.867188 9.972656 C 7.867188 9.378906 8.101562 8.808594 8.523438 8.386719 C 8.945312 7.964844 9.515625 7.730469 10.113281 7.730469 Z M 10.113281 7.730469 " clip-rule="nonzero"/></clipPath><linearGradient x1="0" gradientTransform="matrix(0.363641, 0, 0, 0.363641, 7.866866, 7.728203)" y1="184.769" x2="255.999998" gradientUnits="userSpaceOnUse" y2="184.769" id="e3e8e273b7"><stop stop-opacity="1" stop-color="rgb(0%, 28.999329%, 67.799377%)" offset="0"/><stop stop-opacity="1" stop-color="rgb(0.309753%, 29.051208%, 67.886353%)" offset="0.00390625"/><stop stop-opacity="1" stop-color="rgb(0.621033%, 29.104614%, 67.974854%)" offset="0.0078125"/><stop stop-opacity="1" stop-color="rgb(0.932312%, 29.156494%, 68.061829%)" offset="0.0117188"/><stop stop-opacity="1" stop-color="rgb(1.243591%, 29.208374%, 68.148804%)" offset="0.015625"/><stop stop-opacity="1" stop-color="rgb(1.553345%, 29.260254%, 68.235779%)" offset="0.0195312"/><stop stop-opacity="1" stop-color="rgb(1.864624%, 29.31366%, 68.32428%)" offset="0.0234375"/><stop stop-opacity="1" stop-color="rgb(2.175903%, 29.36554%, 68.411255%)" offset="0.0273438"/><stop stop-opacity="1" stop-color="rgb(2.487183%, 29.417419%, 68.499756%)" offset="0.03125"/><stop stop-opacity="1" stop-color="rgb(2.796936%, 29.469299%, 68.586731%)" offset="0.0351562"/><stop stop-opacity="1" stop-color="rgb(3.108215%, 29.522705%, 68.673706%)" offset="0.0390625"/><stop stop-opacity="1" stop-color="rgb(3.419495%, 29.574585%, 68.760681%)" offset="0.0429688"/><stop stop-opacity="1" stop-color="rgb(3.730774%, 29.627991%, 68.849182%)" offset="0.046875"/><stop stop-opacity="1" stop-color="rgb(4.040527%, 29.679871%, 68.936157%)" offset="0.0507813"/><stop stop-opacity="1" stop-color="rgb(4.351807%, 29.73175%, 69.024658%)" offset="0.0546875"/><stop stop-opacity="1" stop-color="rgb(4.663086%, 29.78363%, 69.111633%)" offset="0.0585938"/><stop stop-opacity="1" stop-color="rgb(4.974365%, 29.837036%, 69.198608%)" offset="0.0625"/><stop stop-opacity="1" stop-color="rgb(5.284119%, 29.888916%, 69.285583%)" offset="0.0664062"/><stop stop-opacity="1" stop-color="rgb(5.595398%, 29.940796%, 69.374084%)" offset="0.0703125"/><stop stop-opacity="1" stop-color="rgb(5.906677%, 29.992676%, 69.46106%)" offset="0.0742188"/><stop stop-opacity="1" stop-color="rgb(6.217957%, 30.046082%, 69.549561%)" offset="0.078125"/><stop stop-opacity="1" stop-color="rgb(6.529236%, 30.097961%, 69.636536%)" offset="0.0820312"/><stop stop-opacity="1" stop-color="rgb(6.840515%, 30.151367%, 69.723511%)" offset="0.0859375"/><stop stop-opacity="1" stop-color="rgb(7.150269%, 30.203247%, 69.810486%)" offset="0.0898438"/><stop stop-opacity="1" stop-color="rgb(7.461548%, 30.255127%, 69.898987%)" offset="0.09375"/><stop stop-opacity="1" stop-color="rgb(7.772827%, 30.307007%, 69.985962%)" offset="0.0976563"/><stop stop-opacity="1" stop-color="rgb(8.084106%, 30.360413%, 70.074463%)" offset="0.101563"/><stop stop-opacity="1" stop-color="rgb(8.39386%, 30.412292%, 70.161438%)" offset="0.105469"/><stop stop-opacity="1" stop-color="rgb(8.705139%, 30.464172%, 70.249939%)" offset="0.109375"/><stop stop-opacity="1" stop-color="rgb(9.016418%, 30.516052%, 70.336914%)" offset="0.113281"/><stop stop-opacity="1" stop-color="rgb(9.327698%, 30.569458%, 70.423889%)" offset="0.117188"/><stop stop-opacity="1" stop-color="rgb(9.637451%, 30.621338%, 70.510864%)" offset="0.121094"/><stop stop-opacity="1" stop-color="rgb(9.94873%, 30.674744%, 70.599365%)" offset="0.125"/><stop stop-opacity="1" stop-color="rgb(10.26001%, 30.726624%, 70.68634%)" offset="0.128906"/><stop stop-opacity="1" stop-color="rgb(10.571289%, 30.778503%, 70.774841%)" offset="0.132812"/><stop stop-opacity="1" stop-color="rgb(10.881042%, 30.830383%, 70.861816%)" offset="0.136719"/><stop stop-opacity="1" stop-color="rgb(11.192322%, 30.883789%, 70.948792%)" offset="0.140625"/><stop stop-opacity="1" stop-color="rgb(11.503601%, 30.935669%, 71.035767%)" offset="0.144531"/><stop stop-opacity="1" stop-color="rgb(11.81488%, 30.987549%, 71.124268%)" offset="0.148438"/><stop stop-opacity="1" stop-color="rgb(12.12616%, 31.039429%, 71.211243%)" offset="0.152344"/><stop stop-opacity="1" stop-color="rgb(12.437439%, 31.092834%, 71.299744%)" offset="0.15625"/><stop stop-opacity="1" stop-color="rgb(12.747192%, 31.144714%, 71.386719%)" offset="0.160156"/><stop stop-opacity="1" stop-color="rgb(13.058472%, 31.19812%, 71.473694%)" offset="0.164062"/><stop stop-opacity="1" stop-color="rgb(13.369751%, 31.25%, 71.560669%)" offset="0.167969"/><stop stop-opacity="1" stop-color="rgb(13.68103%, 31.30188%, 71.64917%)" offset="0.171875"/><stop stop-opacity="1" stop-color="rgb(13.990784%, 31.35376%, 71.736145%)" offset="0.175781"/><stop stop-opacity="1" stop-color="rgb(14.302063%, 31.407166%, 71.824646%)" offset="0.179688"/><stop stop-opacity="1" stop-color="rgb(14.613342%, 31.459045%, 71.911621%)" offset="0.183594"/><stop stop-opacity="1" stop-color="rgb(14.924622%, 31.512451%, 71.998596%)" offset="0.1875"/><stop stop-opacity="1" stop-color="rgb(15.234375%, 31.564331%, 72.085571%)" offset="0.191406"/><stop stop-opacity="1" stop-color="rgb(15.545654%, 31.616211%, 72.174072%)" offset="0.195313"/><stop stop-opacity="1" stop-color="rgb(15.856934%, 31.668091%, 72.261047%)" offset="0.199219"/><stop stop-opacity="1" stop-color="rgb(16.168213%, 31.721497%, 72.349548%)" offset="0.203125"/><stop stop-opacity="1" stop-color="rgb(16.477966%, 31.773376%, 72.436523%)" offset="0.207031"/><stop stop-opacity="1" stop-color="rgb(16.789246%, 31.825256%, 72.523499%)" offset="0.210938"/><stop stop-opacity="1" stop-color="rgb(17.100525%, 31.877136%, 72.610474%)" offset="0.214844"/><stop stop-opacity="1" stop-color="rgb(17.411804%, 31.930542%, 72.698975%)" offset="0.21875"/><stop stop-opacity="1" stop-color="rgb(17.723083%, 31.982422%, 72.78595%)" offset="0.222656"/><stop stop-opacity="1" stop-color="rgb(18.034363%, 32.035828%, 72.874451%)" offset="0.226562"/><stop stop-opacity="1" stop-color="rgb(18.344116%, 32.087708%, 72.961426%)" offset="0.230469"/><stop stop-opacity="1" stop-color="rgb(18.655396%, 32.139587%, 73.049927%)" offset="0.234375"/><stop stop-opacity="1" stop-color="rgb(18.966675%, 32.191467%, 73.136902%)" offset="0.238281"/><stop stop-opacity="1" stop-color="rgb(19.277954%, 32.244873%, 73.223877%)" offset="0.242188"/><stop stop-opacity="1" stop-color="rgb(19.587708%, 32.296753%, 73.310852%)" offset="0.246094"/><stop stop-opacity="1" stop-color="rgb(19.898987%, 32.348633%, 73.399353%)" offset="0.25"/><stop stop-opacity="1" stop-color="rgb(20.210266%, 32.400513%, 73.486328%)" offset="0.253906"/><stop stop-opacity="1" stop-color="rgb(20.521545%, 32.453918%, 73.574829%)" offset="0.257813"/><stop stop-opacity="1" stop-color="rgb(20.831299%, 32.505798%, 73.661804%)" offset="0.261719"/><stop stop-opacity="1" stop-color="rgb(21.142578%, 32.559204%, 73.748779%)" offset="0.265625"/><stop stop-opacity="1" stop-color="rgb(21.453857%, 32.611084%, 73.835754%)" offset="0.269531"/><stop stop-opacity="1" stop-color="rgb(21.765137%, 32.662964%, 73.924255%)" offset="0.273438"/><stop stop-opacity="1" stop-color="rgb(22.07489%, 32.714844%, 74.01123%)" offset="0.277344"/><stop stop-opacity="1" stop-color="rgb(22.386169%, 32.76825%, 74.099731%)" offset="0.28125"/><stop stop-opacity="1" stop-color="rgb(22.697449%, 32.820129%, 74.186707%)" offset="0.285156"/><stop stop-opacity="1" stop-color="rgb(23.008728%, 32.872009%, 74.273682%)" offset="0.289062"/><stop stop-opacity="1" stop-color="rgb(23.318481%, 32.923889%, 74.360657%)" offset="0.292969"/><stop stop-opacity="1" stop-color="rgb(23.629761%, 32.977295%, 74.449158%)" offset="0.296875"/><stop stop-opacity="1" stop-color="rgb(23.94104%, 33.029175%, 74.536133%)" offset="0.300781"/><stop stop-opacity="1" stop-color="rgb(24.252319%, 33.082581%, 74.624634%)" offset="0.304688"/><stop stop-opacity="1" stop-color="rgb(24.563599%, 33.13446%, 74.711609%)" offset="0.308594"/><stop stop-opacity="1" stop-color="rgb(24.874878%, 33.18634%, 74.798584%)" offset="0.3125"/><stop stop-opacity="1" stop-color="rgb(25.184631%, 33.23822%, 74.885559%)" offset="0.316406"/><stop stop-opacity="1" stop-color="rgb(25.495911%, 33.291626%, 74.97406%)" offset="0.320312"/><stop stop-opacity="1" stop-color="rgb(25.80719%, 33.343506%, 75.061035%)" offset="0.324219"/><stop stop-opacity="1" stop-color="rgb(26.118469%, 33.395386%, 75.149536%)" offset="0.328125"/><stop stop-opacity="1" stop-color="rgb(26.428223%, 33.447266%, 75.236511%)" offset="0.332031"/><stop stop-opacity="1" stop-color="rgb(26.739502%, 33.500671%, 75.323486%)" offset="0.335938"/><stop stop-opacity="1" stop-color="rgb(27.050781%, 33.552551%, 75.410461%)" offset="0.339844"/><stop stop-opacity="1" stop-color="rgb(27.362061%, 33.605957%, 75.498962%)" offset="0.34375"/><stop stop-opacity="1" stop-color="rgb(27.671814%, 33.657837%, 75.585938%)" offset="0.347656"/><stop stop-opacity="1" stop-color="rgb(27.983093%, 33.709717%, 75.674438%)" offset="0.351562"/><stop stop-opacity="1" stop-color="rgb(28.294373%, 33.761597%, 75.761414%)" offset="0.355469"/><stop stop-opacity="1" stop-color="rgb(28.605652%, 33.815002%, 75.849915%)" offset="0.359375"/><stop stop-opacity="1" stop-color="rgb(28.915405%, 33.866882%, 75.93689%)" offset="0.363281"/><stop stop-opacity="1" stop-color="rgb(29.226685%, 33.920288%, 76.023865%)" offset="0.367188"/><stop stop-opacity="1" stop-color="rgb(29.537964%, 33.972168%, 76.11084%)" offset="0.371094"/><stop stop-opacity="1" stop-color="rgb(29.849243%, 34.024048%, 76.199341%)" offset="0.375"/><stop stop-opacity="1" stop-color="rgb(30.160522%, 34.075928%, 76.286316%)" offset="0.378906"/><stop stop-opacity="1" stop-color="rgb(30.471802%, 34.129333%, 76.374817%)" offset="0.382812"/><stop stop-opacity="1" stop-color="rgb(30.781555%, 34.181213%, 76.461792%)" offset="0.386719"/><stop stop-opacity="1" stop-color="rgb(31.092834%, 34.233093%, 76.548767%)" offset="0.390625"/><stop stop-opacity="1" stop-color="rgb(31.404114%, 34.284973%, 76.635742%)" offset="0.394531"/><stop stop-opacity="1" stop-color="rgb(31.715393%, 34.338379%, 76.724243%)" offset="0.398438"/><stop stop-opacity="1" stop-color="rgb(32.025146%, 34.390259%, 76.811218%)" offset="0.402344"/><stop stop-opacity="1" stop-color="rgb(32.336426%, 34.443665%, 76.899719%)" offset="0.40625"/><stop stop-opacity="1" stop-color="rgb(32.647705%, 34.495544%, 76.986694%)" offset="0.410156"/><stop stop-opacity="1" stop-color="rgb(32.958984%, 34.547424%, 77.073669%)" offset="0.414062"/><stop stop-opacity="1" stop-color="rgb(33.268738%, 34.599304%, 77.160645%)" offset="0.417969"/><stop stop-opacity="1" stop-color="rgb(33.580017%, 34.65271%, 77.249146%)" offset="0.421875"/><stop stop-opacity="1" stop-color="rgb(33.891296%, 34.70459%, 77.336121%)" offset="0.425781"/><stop stop-opacity="1" stop-color="rgb(34.202576%, 34.75647%, 77.424622%)" offset="0.429688"/><stop stop-opacity="1" stop-color="rgb(34.512329%, 34.80835%, 77.511597%)" offset="0.433594"/><stop stop-opacity="1" stop-color="rgb(34.823608%, 34.861755%, 77.598572%)" offset="0.4375"/><stop stop-opacity="1" stop-color="rgb(35.134888%, 34.913635%, 77.685547%)" offset="0.441406"/><stop stop-opacity="1" stop-color="rgb(35.446167%, 34.967041%, 77.774048%)" offset="0.445313"/><stop stop-opacity="1" stop-color="rgb(35.757446%, 35.018921%, 77.861023%)" offset="0.449219"/><stop stop-opacity="1" stop-color="rgb(36.068726%, 35.070801%, 77.949524%)" offset="0.453125"/><stop stop-opacity="1" stop-color="rgb(36.378479%, 35.122681%, 78.036499%)" offset="0.457031"/><stop stop-opacity="1" stop-color="rgb(36.689758%, 35.176086%, 78.123474%)" offset="0.460938"/><stop stop-opacity="1" stop-color="rgb(37.001038%, 35.227966%, 78.210449%)" offset="0.464844"/><stop stop-opacity="1" stop-color="rgb(37.312317%, 35.279846%, 78.29895%)" offset="0.46875"/><stop stop-opacity="1" stop-color="rgb(37.62207%, 35.331726%, 78.385925%)" offset="0.472656"/><stop stop-opacity="1" stop-color="rgb(37.93335%, 35.385132%, 78.474426%)" offset="0.476562"/><stop stop-opacity="1" stop-color="rgb(38.244629%, 35.437012%, 78.561401%)" offset="0.480469"/><stop stop-opacity="1" stop-color="rgb(38.555908%, 35.490417%, 78.649902%)" offset="0.484375"/><stop stop-opacity="1" stop-color="rgb(38.865662%, 35.542297%, 78.736877%)" offset="0.488281"/><stop stop-opacity="1" stop-color="rgb(39.176941%, 35.594177%, 78.823853%)" offset="0.492188"/><stop stop-opacity="1" stop-color="rgb(39.48822%, 35.646057%, 78.910828%)" offset="0.496094"/><stop stop-opacity="1" stop-color="rgb(39.7995%, 35.699463%, 78.999329%)" offset="0.5"/><stop stop-opacity="1" stop-color="rgb(40.109253%, 35.751343%, 79.086304%)" offset="0.503906"/><stop stop-opacity="1" stop-color="rgb(40.420532%, 35.803223%, 79.174805%)" offset="0.507812"/><stop stop-opacity="1" stop-color="rgb(40.731812%, 35.855103%, 79.26178%)" offset="0.511719"/><stop stop-opacity="1" stop-color="rgb(41.043091%, 35.908508%, 79.348755%)" offset="0.515625"/><stop stop-opacity="1" stop-color="rgb(41.352844%, 35.960388%, 79.43573%)" offset="0.519531"/><stop stop-opacity="1" stop-color="rgb(41.664124%, 36.013794%, 79.524231%)" offset="0.523438"/><stop stop-opacity="1" stop-color="rgb(41.975403%, 36.065674%, 79.611206%)" offset="0.527344"/><stop stop-opacity="1" stop-color="rgb(42.286682%, 36.117554%, 79.699707%)" offset="0.53125"/><stop stop-opacity="1" stop-color="rgb(42.597961%, 36.169434%, 79.786682%)" offset="0.535156"/><stop stop-opacity="1" stop-color="rgb(42.909241%, 36.222839%, 79.873657%)" offset="0.539062"/><stop stop-opacity="1" stop-color="rgb(43.218994%, 36.274719%, 79.960632%)" offset="0.542969"/><stop stop-opacity="1" stop-color="rgb(43.530273%, 36.326599%, 80.049133%)" offset="0.546875"/><stop stop-opacity="1" stop-color="rgb(43.841553%, 36.378479%, 80.136108%)" offset="0.550781"/><stop stop-opacity="1" stop-color="rgb(44.152832%, 36.431885%, 80.224609%)" offset="0.554688"/><stop stop-opacity="1" stop-color="rgb(44.462585%, 36.483765%, 80.311584%)" offset="0.558594"/><stop stop-opacity="1" stop-color="rgb(44.773865%, 36.53717%, 80.39856%)" offset="0.5625"/><stop stop-opacity="1" stop-color="rgb(45.085144%, 36.58905%, 80.485535%)" offset="0.566406"/><stop stop-opacity="1" stop-color="rgb(45.396423%, 36.64093%, 80.574036%)" offset="0.570312"/><stop stop-opacity="1" stop-color="rgb(45.706177%, 36.69281%, 80.661011%)" offset="0.574219"/><stop stop-opacity="1" stop-color="rgb(46.017456%, 36.746216%, 80.749512%)" offset="0.578125"/><stop stop-opacity="1" stop-color="rgb(46.328735%, 36.798096%, 80.836487%)" offset="0.582031"/><stop stop-opacity="1" stop-color="rgb(46.640015%, 36.851501%, 80.924988%)" offset="0.585938"/><stop stop-opacity="1" stop-color="rgb(46.949768%, 36.903381%, 81.011963%)" offset="0.589844"/><stop stop-opacity="1" stop-color="rgb(47.261047%, 36.955261%, 81.098938%)" offset="0.59375"/><stop stop-opacity="1" stop-color="rgb(47.572327%, 37.007141%, 81.185913%)" offset="0.597656"/><stop stop-opacity="1" stop-color="rgb(47.883606%, 37.060547%, 81.274414%)" offset="0.601562"/><stop stop-opacity="1" stop-color="rgb(48.194885%, 37.112427%, 81.361389%)" offset="0.605469"/><stop stop-opacity="1" stop-color="rgb(48.506165%, 37.164307%, 81.44989%)" offset="0.609375"/><stop stop-opacity="1" stop-color="rgb(48.815918%, 37.216187%, 81.536865%)" offset="0.613281"/><stop stop-opacity="1" stop-color="rgb(49.127197%, 37.269592%, 81.62384%)" offset="0.617188"/><stop stop-opacity="1" stop-color="rgb(49.438477%, 37.321472%, 81.710815%)" offset="0.621094"/><stop stop-opacity="1" stop-color="rgb(49.749756%, 37.374878%, 81.799316%)" offset="0.625"/><stop stop-opacity="1" stop-color="rgb(50.059509%, 37.426758%, 81.886292%)" offset="0.628906"/><stop stop-opacity="1" stop-color="rgb(50.370789%, 37.478638%, 81.974792%)" offset="0.632812"/><stop stop-opacity="1" stop-color="rgb(50.682068%, 37.530518%, 82.061768%)" offset="0.636719"/><stop stop-opacity="1" stop-color="rgb(50.993347%, 37.583923%, 82.148743%)" offset="0.640625"/><stop stop-opacity="1" stop-color="rgb(51.303101%, 37.635803%, 82.235718%)" offset="0.644531"/><stop stop-opacity="1" stop-color="rgb(51.61438%, 37.687683%, 82.324219%)" offset="0.648438"/><stop stop-opacity="1" stop-color="rgb(51.925659%, 37.739563%, 82.411194%)" offset="0.652344"/><stop stop-opacity="1" stop-color="rgb(52.236938%, 37.792969%, 82.499695%)" offset="0.65625"/><stop stop-opacity="1" stop-color="rgb(52.546692%, 37.844849%, 82.58667%)" offset="0.660156"/><stop stop-opacity="1" stop-color="rgb(52.857971%, 37.898254%, 82.673645%)" offset="0.664062"/><stop stop-opacity="1" stop-color="rgb(53.16925%, 37.950134%, 82.76062%)" offset="0.667969"/><stop stop-opacity="1" stop-color="rgb(53.48053%, 38.002014%, 82.849121%)" offset="0.671875"/><stop stop-opacity="1" stop-color="rgb(53.791809%, 38.053894%, 82.936096%)" offset="0.675781"/><stop stop-opacity="1" stop-color="rgb(54.103088%, 38.1073%, 83.024597%)" offset="0.679688"/><stop stop-opacity="1" stop-color="rgb(54.412842%, 38.15918%, 83.111572%)" offset="0.683594"/><stop stop-opacity="1" stop-color="rgb(54.724121%, 38.21106%, 83.198547%)" offset="0.6875"/><stop stop-opacity="1" stop-color="rgb(55.0354%, 38.262939%, 83.285522%)" offset="0.691406"/><stop stop-opacity="1" stop-color="rgb(55.34668%, 38.316345%, 83.374023%)" offset="0.695312"/><stop stop-opacity="1" stop-color="rgb(55.656433%, 38.368225%, 83.460999%)" offset="0.699219"/><stop stop-opacity="1" stop-color="rgb(55.967712%, 38.421631%, 83.5495%)" offset="0.703125"/><stop stop-opacity="1" stop-color="rgb(56.278992%, 38.473511%, 83.636475%)" offset="0.707031"/><stop stop-opacity="1" stop-color="rgb(56.590271%, 38.525391%, 83.724976%)" offset="0.710938"/><stop stop-opacity="1" stop-color="rgb(56.900024%, 38.577271%, 83.811951%)" offset="0.714844"/><stop stop-opacity="1" stop-color="rgb(57.211304%, 38.630676%, 83.898926%)" offset="0.71875"/><stop stop-opacity="1" stop-color="rgb(57.522583%, 38.682556%, 83.985901%)" offset="0.722656"/><stop stop-opacity="1" stop-color="rgb(57.833862%, 38.734436%, 84.074402%)" offset="0.726562"/><stop stop-opacity="1" stop-color="rgb(58.143616%, 38.786316%, 84.161377%)" offset="0.730469"/><stop stop-opacity="1" stop-color="rgb(58.454895%, 38.839722%, 84.249878%)" offset="0.734375"/><stop stop-opacity="1" stop-color="rgb(58.766174%, 38.891602%, 84.336853%)" offset="0.738281"/><stop stop-opacity="1" stop-color="rgb(59.077454%, 38.945007%, 84.423828%)" offset="0.742188"/><stop stop-opacity="1" stop-color="rgb(59.387207%, 38.996887%, 84.510803%)" offset="0.746094"/><stop stop-opacity="1" stop-color="rgb(59.698486%, 39.048767%, 84.599304%)" offset="0.75"/><stop stop-opacity="1" stop-color="rgb(60.009766%, 39.100647%, 84.686279%)" offset="0.753906"/><stop stop-opacity="1" stop-color="rgb(60.321045%, 39.154053%, 84.77478%)" offset="0.757812"/><stop stop-opacity="1" stop-color="rgb(60.632324%, 39.205933%, 84.861755%)" offset="0.761719"/><stop stop-opacity="1" stop-color="rgb(60.943604%, 39.259338%, 84.94873%)" offset="0.765625"/><stop stop-opacity="1" stop-color="rgb(61.253357%, 39.311218%, 85.035706%)" offset="0.769531"/><stop stop-opacity="1" stop-color="rgb(61.564636%, 39.363098%, 85.124207%)" offset="0.773438"/><stop stop-opacity="1" stop-color="rgb(61.875916%, 39.414978%, 85.211182%)" offset="0.777344"/><stop stop-opacity="1" stop-color="rgb(62.187195%, 39.468384%, 85.299683%)" offset="0.78125"/><stop stop-opacity="1" stop-color="rgb(62.496948%, 39.520264%, 85.386658%)" offset="0.785156"/><stop stop-opacity="1" stop-color="rgb(62.808228%, 39.572144%, 85.473633%)" offset="0.789062"/><stop stop-opacity="1" stop-color="rgb(63.119507%, 39.624023%, 85.560608%)" offset="0.792969"/><stop stop-opacity="1" stop-color="rgb(63.430786%, 39.677429%, 85.649109%)" offset="0.796875"/><stop stop-opacity="1" stop-color="rgb(63.74054%, 39.729309%, 85.736084%)" offset="0.800781"/><stop stop-opacity="1" stop-color="rgb(64.051819%, 39.782715%, 85.824585%)" offset="0.804688"/><stop stop-opacity="1" stop-color="rgb(64.363098%, 39.834595%, 85.91156%)" offset="0.808594"/><stop stop-opacity="1" stop-color="rgb(64.674377%, 39.886475%, 85.998535%)" offset="0.8125"/><stop stop-opacity="1" stop-color="rgb(64.984131%, 39.938354%, 86.08551%)" offset="0.816406"/><stop stop-opacity="1" stop-color="rgb(65.29541%, 39.99176%, 86.174011%)" offset="0.820313"/><stop stop-opacity="1" stop-color="rgb(65.606689%, 40.04364%, 86.260986%)" offset="0.824219"/><stop stop-opacity="1" stop-color="rgb(65.917969%, 40.09552%, 86.349487%)" offset="0.828125"/><stop stop-opacity="1" stop-color="rgb(66.229248%, 40.1474%, 86.436462%)" offset="0.832031"/><stop stop-opacity="1" stop-color="rgb(66.540527%, 40.200806%, 86.524963%)" offset="0.835938"/><stop stop-opacity="1" stop-color="rgb(66.850281%, 40.252686%, 86.611938%)" offset="0.839844"/><stop stop-opacity="1" stop-color="rgb(67.16156%, 40.306091%, 86.698914%)" offset="0.84375"/><stop stop-opacity="1" stop-color="rgb(67.472839%, 40.357971%, 86.785889%)" offset="0.847656"/><stop stop-opacity="1" stop-color="rgb(67.784119%, 40.409851%, 86.87439%)" offset="0.851562"/><stop stop-opacity="1" stop-color="rgb(68.093872%, 40.461731%, 86.961365%)" offset="0.855469"/><stop stop-opacity="1" stop-color="rgb(68.405151%, 40.515137%, 87.049866%)" offset="0.859375"/><stop stop-opacity="1" stop-color="rgb(68.716431%, 40.567017%, 87.136841%)" offset="0.863281"/><stop stop-opacity="1" stop-color="rgb(69.02771%, 40.618896%, 87.223816%)" offset="0.867188"/><stop stop-opacity="1" stop-color="rgb(69.337463%, 40.670776%, 87.310791%)" offset="0.871094"/><stop stop-opacity="1" stop-color="rgb(69.648743%, 40.724182%, 87.399292%)" offset="0.875"/><stop stop-opacity="1" stop-color="rgb(69.960022%, 40.776062%, 87.486267%)" offset="0.878906"/><stop stop-opacity="1" stop-color="rgb(70.271301%, 40.829468%, 87.574768%)" offset="0.882812"/><stop stop-opacity="1" stop-color="rgb(70.581055%, 40.881348%, 87.661743%)" offset="0.886719"/><stop stop-opacity="1" stop-color="rgb(70.892334%, 40.933228%, 87.748718%)" offset="0.890625"/><stop stop-opacity="1" stop-color="rgb(71.203613%, 40.985107%, 87.835693%)" offset="0.894531"/><stop stop-opacity="1" stop-color="rgb(71.514893%, 41.038513%, 87.924194%)" offset="0.898438"/><stop stop-opacity="1" stop-color="rgb(71.826172%, 41.090393%, 88.011169%)" offset="0.902344"/><stop stop-opacity="1" stop-color="rgb(72.137451%, 41.142273%, 88.09967%)" offset="0.90625"/><stop stop-opacity="1" stop-color="rgb(72.447205%, 41.194153%, 88.186646%)" offset="0.910156"/><stop stop-opacity="1" stop-color="rgb(72.758484%, 41.247559%, 88.273621%)" offset="0.914062"/><stop stop-opacity="1" stop-color="rgb(73.069763%, 41.299438%, 88.360596%)" offset="0.917969"/><stop stop-opacity="1" stop-color="rgb(73.381042%, 41.352844%, 88.449097%)" offset="0.921875"/><stop stop-opacity="1" stop-color="rgb(73.690796%, 41.404724%, 88.536072%)" offset="0.925781"/><stop stop-opacity="1" stop-color="rgb(74.002075%, 41.456604%, 88.624573%)" offset="0.929688"/><stop stop-opacity="1" stop-color="rgb(74.313354%, 41.508484%, 88.711548%)" offset="0.933594"/><stop stop-opacity="1" stop-color="rgb(74.624634%, 41.56189%, 88.798523%)" offset="0.9375"/><stop stop-opacity="1" stop-color="rgb(74.934387%, 41.61377%, 88.885498%)" offset="0.941406"/><stop stop-opacity="1" stop-color="rgb(75.245667%, 41.667175%, 88.973999%)" offset="0.945312"/><stop stop-opacity="1" stop-color="rgb(75.556946%, 41.719055%, 89.060974%)" offset="0.949219"/><stop stop-opacity="1" stop-color="rgb(75.868225%, 41.770935%, 89.149475%)" offset="0.953125"/><stop stop-opacity="1" stop-color="rgb(76.177979%, 41.822815%, 89.23645%)" offset="0.957031"/><stop stop-opacity="1" stop-color="rgb(76.489258%, 41.876221%, 89.324951%)" offset="0.960938"/><stop stop-opacity="1" stop-color="rgb(76.800537%, 41.928101%, 89.411926%)" offset="0.964844"/><stop stop-opacity="1" stop-color="rgb(77.111816%, 41.97998%, 89.498901%)" offset="0.96875"/><stop stop-opacity="1" stop-color="rgb(77.42157%, 42.03186%, 89.585876%)" offset="0.972656"/><stop stop-opacity="1" stop-color="rgb(77.732849%, 42.085266%, 89.674377%)" offset="0.976562"/><stop stop-opacity="1" stop-color="rgb(78.044128%, 42.137146%, 89.761353%)" offset="0.980469"/><stop stop-opacity="1" stop-color="rgb(78.355408%, 42.190552%, 89.849854%)" offset="0.984375"/><stop stop-opacity="1" stop-color="rgb(78.666687%, 42.242432%, 89.936829%)" offset="0.988281"/><stop stop-opacity="1" stop-color="rgb(78.977966%, 42.294312%, 90.023804%)" offset="0.992188"/><stop stop-opacity="1" stop-color="rgb(79.28772%, 42.346191%, 90.110779%)" offset="0.996094"/><stop stop-opacity="1" stop-color="rgb(79.598999%, 42.399597%, 90.19928%)" offset="1"/></linearGradient><clipPath id="a457ac6b52"><path d="M 24.726562 35.675781 L 68 35.675781 L 68 60.300781 L 24.726562 60.300781 Z M 24.726562 35.675781 " clip-rule="nonzero"/></clipPath><clipPath id="638e59b434"><path d="M 32 44 L 78.839844 44 L 78.839844 60.300781 L 32 60.300781 Z M 32 44 " clip-rule="nonzero"/></clipPath><clipPath id="2cf08d242f"><rect x="0" width="109" y="0" height="150"/></clipPath></defs><g clip-path="url(#e396739b38)"><g mask="url(#1d9ea5b366)"><g transform="matrix(1, 0, 0, 1, 0, 0.000000000000000194)"><g clip-path="url(#2cf08d242f)"><g clip-path="url(#8c59b5b4e5)"><path fill="#e6eef4" d="M 103.292969 0.171875 L 5.226562 0.171875 C 2.375 0.171875 0.0664062 2.484375 0.0664062 5.335938 L 0.0664062 144.757812 C 0.0664062 147.609375 2.375 149.921875 5.226562 149.921875 L 103.292969 149.921875 C 106.144531 149.921875 108.453125 147.609375 108.453125 144.757812 L 108.453125 5.335938 C 108.453125 2.484375 106.144531 0.171875 103.292969 0.171875 Z M 103.292969 0.171875 " fill-opacity="1" fill-rule="nonzero"/></g><path fill="#d71e00" d="M 98.132812 142.175781 C 99.558594 142.175781 100.710938 141.019531 100.710938 139.59375 L 100.710938 10.5 C 100.710938 9.074219 99.558594 7.917969 98.132812 7.917969 L 10.386719 7.917969 C 8.960938 7.917969 7.804688 9.074219 7.804688 10.5 L 7.804688 139.59375 C 7.804688 141.019531 8.960938 142.175781 10.386719 142.175781 Z M 12.96875 139.59375 L 12.96875 10.5 L 10.386719 13.082031 L 98.132812 13.082031 L 95.550781 10.5 L 95.550781 139.59375 L 98.132812 137.011719 L 10.386719 137.011719 Z M 12.96875 139.59375 " fill-opacity="1" fill-rule="nonzero"/><path fill="#d71e00" d="M 8.5625 30.699219 C 7.554688 31.707031 7.554688 33.34375 8.5625 34.351562 C 9.570312 35.359375 11.207031 35.359375 12.210938 34.351562 L 34.230469 12.324219 C 35.238281 11.316406 35.238281 9.683594 34.230469 8.675781 C 33.222656 7.667969 31.585938 7.667969 30.578125 8.675781 Z M 8.5625 30.699219 " fill-opacity="1" fill-rule="nonzero"/><path fill="#d71e00" d="M 56.125 12.328125 C 57.132812 11.320312 57.132812 9.683594 56.125 8.675781 C 55.117188 7.667969 53.484375 7.667969 52.476562 8.675781 L 8.5625 52.609375 C 7.554688 53.617188 7.554688 55.253906 8.5625 56.261719 C 9.570312 57.269531 11.203125 57.269531 12.210938 56.261719 Z M 56.125 12.328125 " fill-opacity="1" fill-rule="nonzero"/><path fill="#d71e00" d="M 78.027344 12.324219 C 79.035156 11.316406 79.035156 9.683594 78.027344 8.675781 C 77.019531 7.667969 75.382812 7.667969 74.375 8.675781 L 8.5625 74.515625 C 7.554688 75.527344 7.554688 77.160156 8.5625 78.167969 C 9.570312 79.175781 11.203125 79.175781 12.210938 78.167969 Z M 78.027344 12.324219 " fill-opacity="1" fill-rule="nonzero"/><path fill="#d71e00" d="M 99.921875 12.328125 C 100.929688 11.316406 100.929688 9.683594 99.921875 8.675781 C 98.914062 7.667969 97.28125 7.667969 96.273438 8.675781 L 8.5625 96.425781 C 7.554688 97.433594 7.554688 99.070312 8.5625 100.078125 C 9.570312 101.085938 11.203125 101.085938 12.210938 100.078125 Z M 99.921875 12.328125 " fill-opacity="1" fill-rule="nonzero"/><path fill="#d71e00" d="M 99.957031 34.199219 C 100.964844 33.191406 100.964844 31.558594 99.957031 30.550781 C 98.949219 29.539062 97.316406 29.539062 96.308594 30.550781 L 8.5625 118.332031 C 7.554688 119.339844 7.554688 120.976562 8.5625 121.984375 C 9.570312 122.992188 11.203125 122.992188 12.210938 121.984375 Z M 99.957031 34.199219 " fill-opacity="1" fill-rule="nonzero"/><path fill="#d71e00" d="M 99.957031 56.109375 C 100.964844 55.097656 100.964844 53.464844 99.957031 52.457031 C 98.949219 51.449219 97.316406 51.449219 96.308594 52.457031 L 12.980469 135.824219 C 11.972656 136.832031 11.972656 138.464844 12.980469 139.472656 C 13.988281 140.480469 15.621094 140.480469 16.628906 139.472656 Z M 99.957031 56.109375 " fill-opacity="1" fill-rule="nonzero"/><path fill="#d71e00" d="M 32.933594 137.769531 C 31.925781 138.777344 31.925781 140.410156 32.933594 141.421875 C 33.941406 142.429688 35.574219 142.429688 36.582031 141.421875 L 99.957031 78.015625 C 100.964844 77.007812 100.964844 75.375 99.957031 74.367188 C 98.949219 73.355469 97.316406 73.355469 96.308594 74.367188 Z M 32.933594 137.769531 " fill-opacity="1" fill-rule="nonzero"/><path fill="#d71e00" d="M 54.828125 137.769531 C 53.820312 138.777344 53.820312 140.414062 54.828125 141.421875 C 55.835938 142.429688 57.472656 142.429688 58.480469 141.421875 L 99.957031 99.925781 C 100.964844 98.917969 100.964844 97.28125 99.957031 96.273438 C 98.949219 95.265625 97.316406 95.265625 96.308594 96.273438 Z M 54.828125 137.769531 " fill-opacity="1" fill-rule="nonzero"/><path fill="#d71e00" d="M 99.957031 121.832031 C 100.964844 120.824219 100.964844 119.1875 99.957031 118.179688 C 98.949219 117.171875 97.316406 117.171875 96.308594 118.179688 L 76.726562 137.769531 C 75.71875 138.777344 75.71875 140.410156 76.726562 141.421875 C 77.734375 142.429688 79.371094 142.429688 80.378906 141.421875 Z M 99.957031 121.832031 " fill-opacity="1" fill-rule="nonzero"/><g clip-path="url(#332e2265b3)"><g clip-path="url(#d95872eae8)"><path fill="url(#e3e8e273b7)" d="M 7.867188 7.730469 L 7.867188 142.105469 L 100.957031 142.105469 L 100.957031 7.730469 Z M 7.867188 7.730469 " fill-rule="nonzero"/></g></g><g clip-path="url(#a457ac6b52)"><path fill="#242424" d="M 60.226562 36.28125 C 59.878906 35.789062 59.203125 35.675781 58.714844 36.023438 L 24.734375 60.082031 L 63.191406 44.824219 C 63.75 44.601562 64.382812 44.875 64.601562 45.433594 L 65.351562 47.316406 L 67.453125 46.480469 Z M 55.554688 44.402344 L 54.628906 43.207031 L 56.125 43.003906 Z M 59.671875 42.21875 C 59.53125 42.328125 59.378906 42.410156 59.222656 42.464844 C 59.65625 43.132812 59.511719 44.035156 58.871094 44.535156 C 58.195312 45.0625 57.214844 44.941406 56.691406 44.261719 C 56.34375 43.808594 56.277344 43.230469 56.472656 42.738281 C 55.945312 42.804688 55.398438 42.601562 55.050781 42.148438 C 54.523438 41.472656 54.644531 40.496094 55.324219 39.96875 C 55.96875 39.46875 56.878906 39.554688 57.421875 40.140625 C 57.511719 40 57.628906 39.871094 57.769531 39.765625 C 58.445312 39.238281 59.421875 39.359375 59.949219 40.039062 C 60.472656 40.71875 60.347656 41.695312 59.671875 42.21875 Z M 59.671875 42.21875 " fill-opacity="1" fill-rule="nonzero"/></g><g clip-path="url(#638e59b434)"><path fill="#ed1c24" d="M 73.054688 45.433594 C 72.832031 44.875 72.199219 44.601562 71.640625 44.824219 L 67.453125 46.484375 L 65.351562 47.316406 L 33.183594 60.078125 L 32.949219 60.167969 L 78.898438 60.167969 Z M 70.773438 52.597656 C 70.152344 53.640625 69.886719 54.609375 69.761719 55.25 C 69.328125 54.738281 68.601562 54.007812 67.53125 53.386719 C 66.539062 52.816406 65.617188 52.554688 64.984375 52.425781 C 65.507812 51.964844 66.238281 51.210938 66.859375 50.121094 C 67.394531 49.167969 67.664062 48.285156 67.808594 47.644531 C 68.21875 48.125 68.84375 48.746094 69.714844 49.300781 C 70.828125 50.007812 71.886719 50.324219 72.585938 50.46875 C 72.089844 50.886719 71.378906 51.574219 70.773438 52.597656 Z M 70.773438 52.597656 " fill-opacity="1" fill-rule="nonzero"/></g><path fill="#ffffff" d="M 67.804688 47.644531 C 67.664062 48.285156 67.394531 49.167969 66.855469 50.121094 C 66.234375 51.210938 65.503906 51.964844 64.980469 52.425781 C 65.613281 52.554688 66.535156 52.816406 67.527344 53.386719 C 68.597656 54.007812 69.324219 54.738281 69.757812 55.25 C 69.882812 54.609375 70.148438 53.640625 70.769531 52.597656 C 71.378906 51.574219 72.085938 50.882812 72.585938 50.46875 C 71.882812 50.324219 70.824219 50.011719 69.710938 49.300781 C 68.84375 48.746094 68.21875 48.128906 67.804688 47.644531 Z M 67.804688 47.644531 " fill-opacity="1" fill-rule="nonzero"/><path fill="#ffffff" d="M 57.765625 39.765625 C 57.625 39.871094 57.511719 40 57.417969 40.140625 C 56.875 39.554688 55.964844 39.46875 55.320312 39.96875 C 54.644531 40.496094 54.519531 41.472656 55.046875 42.148438 C 55.394531 42.601562 55.941406 42.804688 56.46875 42.738281 C 56.273438 43.234375 56.339844 43.8125 56.6875 44.261719 C 57.210938 44.9375 58.191406 45.0625 58.867188 44.535156 C 59.511719 44.039062 59.65625 43.132812 59.21875 42.464844 C 59.375 42.410156 59.53125 42.328125 59.667969 42.21875 C 60.34375 41.695312 60.472656 40.714844 59.945312 40.039062 C 59.417969 39.363281 58.445312 39.238281 57.765625 39.765625 Z M 57.765625 39.765625 " fill-opacity="1" fill-rule="nonzero"/><path fill="#ffffff" d="M 55.554688 44.402344 L 56.128906 43.003906 L 54.632812 43.207031 Z M 55.554688 44.402344 " fill-opacity="1" fill-rule="nonzero"/><g fill="#ffffff" fill-opacity="1"><g transform="translate(23.091774, 76.297666)"><g><path d="M 8.75 -4.9375 L 8.75 0 L 4.859375 0 L 4.859375 -5 L -0.390625 -13.765625 L 3.71875 -13.765625 L 6.984375 -8.296875 L 10.25 -13.765625 L 14.03125 -13.765625 Z M 8.75 -4.9375 "/></g></g></g><g fill="#ffffff" fill-opacity="1"><g transform="translate(35.661888, 76.297666)"><g><path d="M 8.328125 0.28125 C 6.867188 0.28125 5.554688 -0.0234375 4.390625 -0.640625 C 3.234375 -1.265625 2.320312 -2.117188 1.65625 -3.203125 C 1 -4.296875 0.671875 -5.523438 0.671875 -6.890625 C 0.671875 -8.253906 1 -9.476562 1.65625 -10.5625 C 2.320312 -11.65625 3.234375 -12.507812 4.390625 -13.125 C 5.554688 -13.738281 6.867188 -14.046875 8.328125 -14.046875 C 9.773438 -14.046875 11.078125 -13.738281 12.234375 -13.125 C 13.398438 -12.507812 14.3125 -11.65625 14.96875 -10.5625 C 15.632812 -9.476562 15.96875 -8.253906 15.96875 -6.890625 C 15.96875 -5.523438 15.632812 -4.296875 14.96875 -3.203125 C 14.3125 -2.117188 13.398438 -1.265625 12.234375 -0.640625 C 11.078125 -0.0234375 9.773438 0.28125 8.328125 0.28125 Z M 8.328125 -2.953125 C 9.015625 -2.953125 9.640625 -3.113281 10.203125 -3.4375 C 10.773438 -3.769531 11.222656 -4.234375 11.546875 -4.828125 C 11.878906 -5.421875 12.046875 -6.109375 12.046875 -6.890625 C 12.046875 -7.660156 11.878906 -8.34375 11.546875 -8.9375 C 11.222656 -9.539062 10.773438 -10.003906 10.203125 -10.328125 C 9.640625 -10.648438 9.015625 -10.8125 8.328125 -10.8125 C 7.628906 -10.8125 7 -10.648438 6.4375 -10.328125 C 5.875 -10.003906 5.425781 -9.539062 5.09375 -8.9375 C 4.769531 -8.34375 4.609375 -7.660156 4.609375 -6.890625 C 4.609375 -6.109375 4.769531 -5.421875 5.09375 -4.828125 C 5.425781 -4.234375 5.875 -3.769531 6.4375 -3.4375 C 7 -3.113281 7.628906 -2.953125 8.328125 -2.953125 Z M 8.328125 -2.953125 "/></g></g></g><g fill="#ffffff" fill-opacity="1"><g transform="translate(51.241788, 76.297666)"><g><path d="M 7.734375 0.28125 C 5.679688 0.28125 4.085938 -0.273438 2.953125 -1.390625 C 1.828125 -2.503906 1.265625 -4.085938 1.265625 -6.140625 L 1.265625 -13.765625 L 5.15625 -13.765625 L 5.15625 -6.25 C 5.15625 -4.050781 6.023438 -2.953125 7.765625 -2.953125 C 9.492188 -2.953125 10.359375 -4.050781 10.359375 -6.25 L 10.359375 -13.765625 L 14.203125 -13.765625 L 14.203125 -6.140625 C 14.203125 -4.085938 13.632812 -2.503906 12.5 -1.390625 C 11.363281 -0.273438 9.773438 0.28125 7.734375 0.28125 Z M 7.734375 0.28125 "/></g></g></g><g fill="#ffffff" fill-opacity="1"><g transform="translate(65.641385, 76.297666)"><g><path d="M 7.390625 -3.65625 L 5.265625 -3.65625 L 5.265625 0 L 1.375 0 L 1.375 -13.765625 L 7.671875 -13.765625 C 8.921875 -13.765625 10.003906 -13.554688 10.921875 -13.140625 C 11.835938 -12.734375 12.546875 -12.144531 13.046875 -11.375 C 13.546875 -10.613281 13.796875 -9.710938 13.796875 -8.671875 C 13.796875 -7.679688 13.5625 -6.8125 13.09375 -6.0625 C 12.625 -5.320312 11.957031 -4.742188 11.09375 -4.328125 L 14.0625 0 L 9.890625 0 Z M 9.859375 -8.671875 C 9.859375 -9.316406 9.65625 -9.816406 9.25 -10.171875 C 8.84375 -10.523438 8.238281 -10.703125 7.4375 -10.703125 L 5.265625 -10.703125 L 5.265625 -6.671875 L 7.4375 -6.671875 C 8.238281 -6.671875 8.84375 -6.84375 9.25 -7.1875 C 9.65625 -7.539062 9.859375 -8.035156 9.859375 -8.671875 Z M 9.859375 -8.671875 "/></g></g></g><g fill="#ffffff" fill-opacity="1"><g transform="translate(79.136499, 76.297666)"><g/></g></g><g fill="#ffffff" fill-opacity="1"><g transform="translate(83.798546, 76.297666)"><g/></g></g><g fill="#ffffff" fill-opacity="1"><g transform="translate(88.460593, 76.297666)"><g/></g></g><g fill="#ffffff" fill-opacity="1"><g transform="translate(93.12264, 76.297666)"><g/></g></g><g fill="#ffffff" fill-opacity="1"><g transform="translate(26.248474, 92.832412)"><g><path d="M 1.375 -13.765625 L 5.265625 -13.765625 L 5.265625 -3.09375 L 11.828125 -3.09375 L 11.828125 0 L 1.375 0 Z M 1.375 -13.765625 "/></g></g></g><g fill="#ffffff" fill-opacity="1"><g transform="translate(36.883441, 92.832412)"><g><path d="M 8.3125 0.28125 C 6.851562 0.28125 5.546875 -0.0234375 4.390625 -0.640625 C 3.234375 -1.265625 2.320312 -2.117188 1.65625 -3.203125 C 1 -4.285156 0.671875 -5.507812 0.671875 -6.875 C 0.671875 -8.238281 1 -9.460938 1.65625 -10.546875 C 2.320312 -11.640625 3.234375 -12.492188 4.390625 -13.109375 C 5.546875 -13.722656 6.851562 -14.03125 8.3125 -14.03125 C 9.769531 -14.03125 11.078125 -13.722656 12.234375 -13.109375 C 13.390625 -12.492188 14.296875 -11.640625 14.953125 -10.546875 C 15.617188 -9.460938 15.953125 -8.238281 15.953125 -6.875 C 15.953125 -5.507812 15.617188 -4.285156 14.953125 -3.203125 C 14.296875 -2.117188 13.390625 -1.265625 12.234375 -0.640625 C 11.078125 -0.0234375 9.769531 0.28125 8.3125 0.28125 Z M 8.3125 -2.953125 C 9.007812 -2.953125 9.640625 -3.113281 10.203125 -3.4375 C 10.765625 -3.769531 11.207031 -4.234375 11.53125 -4.828125 C 11.863281 -5.421875 12.03125 -6.101562 12.03125 -6.875 C 12.03125 -7.65625 11.863281 -8.34375 11.53125 -8.9375 C 11.207031 -9.53125 10.765625 -9.988281 10.203125 -10.3125 C 9.640625 -10.644531 9.007812 -10.8125 8.3125 -10.8125 C 7.613281 -10.8125 6.984375 -10.644531 6.421875 -10.3125 C 5.859375 -9.988281 5.410156 -9.53125 5.078125 -8.9375 C 4.753906 -8.34375 4.59375 -7.65625 4.59375 -6.875 C 4.59375 -6.101562 4.753906 -5.421875 5.078125 -4.828125 C 5.410156 -4.234375 5.859375 -3.769531 6.421875 -3.4375 C 6.984375 -3.113281 7.613281 -2.953125 8.3125 -2.953125 Z M 8.3125 -2.953125 "/></g></g></g><g fill="#ffffff" fill-opacity="1"><g transform="translate(52.157783, 92.832412)"><g><path d="M 10.59375 -7.171875 L 14.03125 -7.171875 L 14.03125 -1.46875 C 13.25 -0.90625 12.34375 -0.472656 11.3125 -0.171875 C 10.289062 0.128906 9.269531 0.28125 8.25 0.28125 C 6.8125 0.28125 5.515625 -0.0195312 4.359375 -0.625 C 3.210938 -1.238281 2.3125 -2.085938 1.65625 -3.171875 C 1 -4.265625 0.671875 -5.5 0.671875 -6.875 C 0.671875 -8.25 1 -9.476562 1.65625 -10.5625 C 2.3125 -11.65625 3.21875 -12.503906 4.375 -13.109375 C 5.539062 -13.722656 6.859375 -14.03125 8.328125 -14.03125 C 9.617188 -14.03125 10.773438 -13.8125 11.796875 -13.375 C 12.816406 -12.945312 13.664062 -12.328125 14.34375 -11.515625 L 11.875 -9.28125 C 10.945312 -10.300781 9.832031 -10.8125 8.53125 -10.8125 C 7.351562 -10.8125 6.398438 -10.453125 5.671875 -9.734375 C 4.953125 -9.023438 4.59375 -8.070312 4.59375 -6.875 C 4.59375 -6.113281 4.753906 -5.4375 5.078125 -4.84375 C 5.410156 -4.25 5.867188 -3.785156 6.453125 -3.453125 C 7.046875 -3.117188 7.722656 -2.953125 8.484375 -2.953125 C 9.234375 -2.953125 9.9375 -3.101562 10.59375 -3.40625 Z M 10.59375 -7.171875 "/></g></g></g><g fill="#ffffff" fill-opacity="1"><g transform="translate(65.938092, 92.832412)"><g><path d="M 8.3125 0.28125 C 6.851562 0.28125 5.546875 -0.0234375 4.390625 -0.640625 C 3.234375 -1.265625 2.320312 -2.117188 1.65625 -3.203125 C 1 -4.285156 0.671875 -5.507812 0.671875 -6.875 C 0.671875 -8.238281 1 -9.460938 1.65625 -10.546875 C 2.320312 -11.640625 3.234375 -12.492188 4.390625 -13.109375 C 5.546875 -13.722656 6.851562 -14.03125 8.3125 -14.03125 C 9.769531 -14.03125 11.078125 -13.722656 12.234375 -13.109375 C 13.390625 -12.492188 14.296875 -11.640625 14.953125 -10.546875 C 15.617188 -9.460938 15.953125 -8.238281 15.953125 -6.875 C 15.953125 -5.507812 15.617188 -4.285156 14.953125 -3.203125 C 14.296875 -2.117188 13.390625 -1.265625 12.234375 -0.640625 C 11.078125 -0.0234375 9.769531 0.28125 8.3125 0.28125 Z M 8.3125 -2.953125 C 9.007812 -2.953125 9.640625 -3.113281 10.203125 -3.4375 C 10.765625 -3.769531 11.207031 -4.234375 11.53125 -4.828125 C 11.863281 -5.421875 12.03125 -6.101562 12.03125 -6.875 C 12.03125 -7.65625 11.863281 -8.34375 11.53125 -8.9375 C 11.207031 -9.53125 10.765625 -9.988281 10.203125 -10.3125 C 9.640625 -10.644531 9.007812 -10.8125 8.3125 -10.8125 C 7.613281 -10.8125 6.984375 -10.644531 6.421875 -10.3125 C 5.859375 -9.988281 5.410156 -9.53125 5.078125 -8.9375 C 4.753906 -8.34375 4.59375 -7.65625 4.59375 -6.875 C 4.59375 -6.101562 4.753906 -5.421875 5.078125 -4.828125 C 5.410156 -4.234375 5.859375 -3.769531 6.421875 -3.4375 C 6.984375 -3.113281 7.613281 -2.953125 8.3125 -2.953125 Z M 8.3125 -2.953125 "/></g></g></g></g></g></g></g></svg>