<svg xmlns="http://www.w3.org/2000/svg" xmlns:xlink="http://www.w3.org/1999/xlink" width="39" zoomAndPan="magnify" viewBox="0 0 29.25 29.250001" height="39" preserveAspectRatio="xMidYMid meet" version="1.2"><defs><clipPath id="938ff1ab9c"><path d="M 0 0 L 28.519531 0 L 28.519531 28.519531 L 0 28.519531 Z M 0 0 "/></clipPath><clipPath id="874bd4de55"><path d="M 0 0 L 28.519531 0 L 28.519531 28.519531 L 0 28.519531 Z M 0 0 "/></clipPath></defs><g id="d968cf6b55"><g clip-rule="nonzero" clip-path="url(#938ff1ab9c)"><path style=" stroke:none;fill-rule:nonzero;fill:#ffffff;fill-opacity:1;" d="M 0 14.167969 C 0 16.078125 0.375 17.933594 1.113281 19.683594 C 1.828125 21.371094 2.847656 22.882812 4.148438 24.183594 C 5.449219 25.484375 6.964844 26.507812 8.652344 27.222656 C 10.398438 27.960938 12.253906 28.335938 14.167969 28.335938 C 16.078125 28.335938 17.933594 27.960938 19.683594 27.222656 C 21.371094 26.507812 22.882812 25.484375 24.183594 24.183594 C 25.484375 22.882812 26.507812 21.371094 27.222656 19.683594 C 27.960938 17.933594 28.335938 16.078125 28.335938 14.167969 C 28.335938 12.253906 27.960938 10.398438 27.222656 8.652344 C 26.507812 6.964844 25.484375 5.449219 24.183594 4.148438 C 22.882812 2.847656 21.371094 1.828125 19.683594 1.113281 C 17.933594 0.375 16.078125 0 14.167969 0 C 12.253906 0 10.398438 0.375 8.652344 1.113281 C 6.964844 1.828125 5.449219 2.847656 4.148438 4.148438 C 2.847656 5.449219 1.828125 6.964844 1.113281 8.652344 C 0.375 10.398438 0 12.253906 0 14.167969 Z M 0 14.167969 "/></g><path style=" stroke:none;fill-rule:nonzero;fill:#edd11a;fill-opacity:1;" d="M 14.167969 5.867188 C 13.6875 5.867188 13.207031 5.910156 12.738281 5.992188 L 12.671875 5.601562 C 13.164062 5.515625 13.664062 5.472656 14.167969 5.472656 C 14.476562 5.472656 14.785156 5.492188 15.089844 5.523438 L 15.046875 5.914062 C 14.757812 5.882812 14.460938 5.867188 14.167969 5.867188 Z M 14.167969 5.867188 "/><path style=" stroke:none;fill-rule:nonzero;fill:#edd11a;fill-opacity:1;" d="M 5.558594 12.9375 C 5.675781 12.136719 5.898438 11.355469 6.230469 10.613281 L 6.589844 10.777344 C 6.273438 11.480469 6.058594 12.226562 5.949219 12.996094 Z M 5.558594 12.9375 "/><path style=" stroke:none;fill-rule:nonzero;fill:#edd11a;fill-opacity:1;" d="M 19.285156 7.632812 L 19.527344 7.324219 C 20.167969 7.824219 20.730469 8.410156 21.207031 9.066406 L 20.886719 9.296875 C 20.433594 8.671875 19.894531 8.109375 19.285156 7.632812 Z M 19.285156 7.632812 "/><path style=" stroke:none;fill-rule:nonzero;fill:#edd11a;fill-opacity:1;" d="M 21.5 10.28125 L 21.847656 10.09375 C 22.230469 10.8125 22.507812 11.578125 22.675781 12.371094 L 22.289062 12.449219 C 22.128906 11.695312 21.863281 10.964844 21.5 10.28125 Z M 21.5 10.28125 "/><path style=" stroke:none;fill-rule:nonzero;fill:#edd11a;fill-opacity:1;" d="M 7.136719 9.757812 L 6.804688 9.546875 C 7.234375 8.859375 7.757812 8.238281 8.363281 7.695312 L 8.625 7.988281 C 8.050781 8.507812 7.546875 9.101562 7.136719 9.757812 Z M 7.136719 9.757812 "/><path style=" stroke:none;fill-rule:nonzero;fill:#edd11a;fill-opacity:1;" d="M 9.320312 6.949219 C 9.992188 6.496094 10.722656 6.140625 11.496094 5.894531 L 11.617188 6.269531 C 10.878906 6.503906 10.179688 6.84375 9.539062 7.277344 Z M 9.320312 6.949219 "/><path style=" stroke:none;fill-rule:nonzero;fill:#edd11a;fill-opacity:1;" d="M 16.1875 6.117188 L 16.285156 5.734375 C 17.070312 5.929688 17.824219 6.234375 18.523438 6.644531 L 18.328125 6.984375 C 17.65625 6.59375 16.9375 6.304688 16.1875 6.117188 Z M 16.1875 6.117188 "/><path style=" stroke:none;fill-rule:nonzero;fill:#edd11a;fill-opacity:1;" d="M 10.527344 21.628906 L 10.351562 21.980469 C 9.625 21.625 8.953125 21.171875 8.347656 20.625 L 8.613281 20.335938 C 9.1875 20.851562 9.832031 21.289062 10.527344 21.628906 Z M 10.527344 21.628906 "/><path style=" stroke:none;fill-rule:nonzero;fill:#edd11a;fill-opacity:1;" d="M 13.875 22.460938 L 13.859375 22.855469 C 13.046875 22.828125 12.246094 22.6875 11.476562 22.4375 L 11.597656 22.0625 C 12.332031 22.300781 13.097656 22.433594 13.875 22.460938 Z M 13.875 22.460938 "/><path style=" stroke:none;fill-rule:nonzero;fill:#edd11a;fill-opacity:1;" d="M 7.808594 19.5 L 7.507812 19.753906 C 6.984375 19.132812 6.554688 18.441406 6.222656 17.703125 L 6.582031 17.542969 C 6.898438 18.25 7.308594 18.90625 7.808594 19.5 Z M 7.808594 19.5 "/><path style=" stroke:none;fill-rule:nonzero;fill:#edd11a;fill-opacity:1;" d="M 5.472656 14.148438 L 5.867188 14.148438 L 5.867188 14.167969 C 5.867188 14.945312 5.976562 15.714844 6.1875 16.453125 L 5.808594 16.5625 C 5.585938 15.789062 5.472656 14.980469 5.472656 14.167969 Z M 5.472656 14.148438 "/><path style=" stroke:none;fill-rule:nonzero;fill:#edd11a;fill-opacity:1;" d="M 22.464844 14.167969 C 22.464844 13.976562 22.460938 13.785156 22.449219 13.597656 L 22.839844 13.570312 C 22.855469 13.765625 22.859375 13.96875 22.859375 14.167969 C 22.859375 14.777344 22.796875 15.390625 22.671875 15.984375 L 22.285156 15.902344 C 22.40625 15.335938 22.464844 14.75 22.464844 14.167969 Z M 22.464844 14.167969 "/><g clip-rule="nonzero" clip-path="url(#874bd4de55)"><path style=" stroke:none;fill-rule:nonzero;fill:#edd11a;fill-opacity:1;" d="M 0 14.167969 C 0 16.078125 0.375 17.933594 1.113281 19.683594 C 1.828125 21.371094 2.847656 22.882812 4.148438 24.183594 C 5.449219 25.484375 6.964844 26.507812 8.652344 27.222656 C 10.398438 27.960938 12.253906 28.335938 14.167969 28.335938 C 16.078125 28.335938 17.933594 27.960938 19.683594 27.222656 C 21.371094 26.507812 22.882812 25.484375 24.183594 24.183594 C 25.484375 22.882812 26.507812 21.371094 27.222656 19.683594 C 27.960938 17.933594 28.335938 16.078125 28.335938 14.167969 C 28.335938 12.253906 27.960938 10.398438 27.222656 8.652344 C 26.507812 6.964844 25.484375 5.449219 24.183594 4.148438 C 22.882812 2.847656 21.371094 1.828125 19.683594 1.113281 C 17.933594 0.375 16.078125 0 14.167969 0 C 12.253906 0 10.398438 0.375 8.652344 1.113281 C 6.964844 1.828125 5.449219 2.847656 4.148438 4.148438 C 2.847656 5.449219 1.828125 6.964844 1.113281 8.652344 C 0.375 10.398438 0 12.253906 0 14.167969 Z M 8.917969 5.804688 C 8.300781 6.195312 7.71875 6.65625 7.1875 7.1875 C 6.988281 7.386719 6.796875 7.597656 6.617188 7.808594 L 3.839844 5.46875 C 4.742188 4.402344 5.800781 3.476562 6.988281 2.730469 Z M 16.011719 0.792969 L 15.519531 4.390625 C 15.074219 4.328125 14.625 4.296875 14.167969 4.296875 C 13.589844 4.296875 13.023438 4.347656 12.46875 4.441406 L 11.847656 0.867188 C 12.601562 0.734375 13.375 0.667969 14.167969 0.667969 C 14.792969 0.667969 15.410156 0.710938 16.011719 0.792969 Z M 24.175781 5.105469 L 21.484375 7.542969 C 21.375 7.421875 21.261719 7.304688 21.148438 7.1875 C 20.53125 6.570312 19.847656 6.046875 19.113281 5.621094 L 20.9375 2.484375 C 22.148438 3.1875 23.242188 4.074219 24.175781 5.105469 Z M 24.03125 13.792969 C 23.992188 12.757812 23.796875 11.75 23.449219 10.800781 L 26.863281 9.5625 C 27.328125 10.847656 27.605469 12.226562 27.660156 13.660156 Z M 21.964844 20.21875 C 22.601562 19.40625 23.097656 18.507812 23.445312 17.550781 L 26.851562 18.796875 C 26.371094 20.125 25.683594 21.351562 24.832031 22.445312 Z M 16.253906 23.816406 C 17.253906 23.601562 18.210938 23.234375 19.097656 22.722656 L 20.910156 25.867188 C 19.71875 26.554688 18.40625 27.066406 17.015625 27.367188 Z M 7.871094 26.113281 L 9.566406 22.902344 C 10.464844 23.378906 11.4375 23.710938 12.445312 23.890625 L 11.820312 27.464844 C 10.414062 27.21875 9.085938 26.757812 7.871094 26.113281 Z M 5.023438 14.167969 C 5.023438 9.125 9.125 5.023438 14.167969 5.023438 C 19.207031 5.023438 23.308594 9.125 23.308594 14.167969 C 23.308594 19.207031 19.207031 23.308594 14.167969 23.308594 C 9.125 23.308594 5.023438 19.207031 5.023438 14.167969 Z M 1.664062 19.273438 L 5.023438 17.898438 C 5.410156 18.839844 5.9375 19.71875 6.605469 20.507812 L 3.824219 22.84375 C 2.929688 21.78125 2.199219 20.578125 1.664062 19.273438 Z M 0.667969 14.136719 C 0.671875 12.699219 0.898438 11.316406 1.316406 10.019531 L 4.769531 11.132812 C 4.460938 12.09375 4.300781 13.109375 4.296875 14.148438 Z M 0.667969 14.136719 "/></g><path style=" stroke:none;fill-rule:nonzero;fill:#edd11a;fill-opacity:1;" d="M 17.421875 22.230469 C 16.667969 22.535156 15.878906 22.730469 15.070312 22.816406 L 15.03125 22.421875 C 15.800781 22.34375 16.554688 22.15625 17.273438 21.867188 Z M 17.421875 22.230469 "/><path style=" stroke:none;fill-rule:nonzero;fill:#edd11a;fill-opacity:1;" d="M 22.335938 17.148438 C 22.058594 17.910156 21.675781 18.625 21.199219 19.28125 L 20.878906 19.050781 C 21.335938 18.425781 21.703125 17.738281 21.964844 17.011719 Z M 22.335938 17.148438 "/><path style=" stroke:none;fill-rule:nonzero;fill:#edd11a;fill-opacity:1;" d="M 20.132812 19.9375 L 20.417969 20.210938 C 19.851562 20.792969 19.210938 21.292969 18.511719 21.699219 L 18.3125 21.359375 C 18.984375 20.972656 19.59375 20.492188 20.132812 19.9375 Z M 20.132812 19.9375 "/><g style="fill:#edd11a;fill-opacity:1;"><g transform="translate(9.939451, 19.200166)"><path style="stroke:none" d="M 7.703125 -2.71875 C 7.703125 -2.195312 7.59375 -1.726562 7.375 -1.3125 C 7.15625 -0.90625 6.820312 -0.570312 6.375 -0.3125 C 5.9375 -0.0625 5.390625 0.0820312 4.734375 0.125 L 4.734375 1.546875 L 3.75 1.546875 L 3.75 0.109375 C 2.976562 0.0351562 2.328125 -0.164062 1.796875 -0.5 C 1.273438 -0.832031 0.898438 -1.226562 0.671875 -1.6875 L 1.3125 -2.453125 L 1.484375 -2.453125 C 2.003906 -1.578125 2.757812 -1.070312 3.75 -0.9375 L 3.75 -4.703125 L 3.46875 -4.765625 C 2.613281 -4.972656 1.976562 -5.300781 1.5625 -5.75 C 1.15625 -6.207031 0.953125 -6.78125 0.953125 -7.46875 C 0.953125 -7.925781 1.0625 -8.335938 1.28125 -8.703125 C 1.5 -9.066406 1.816406 -9.363281 2.234375 -9.59375 C 2.660156 -9.820312 3.164062 -9.957031 3.75 -10 L 3.75 -11.421875 L 4.734375 -11.421875 L 4.734375 -10 C 5.910156 -9.894531 6.765625 -9.476562 7.296875 -8.75 L 6.71875 -8 L 6.5625 -8 C 6.332031 -8.28125 6.066406 -8.5 5.765625 -8.65625 C 5.460938 -8.8125 5.117188 -8.914062 4.734375 -8.96875 L 4.734375 -5.59375 L 4.96875 -5.546875 C 5.9375 -5.316406 6.632812 -4.96875 7.0625 -4.5 C 7.488281 -4.039062 7.703125 -3.445312 7.703125 -2.71875 Z M 2.109375 -7.5 C 2.109375 -7.0625 2.234375 -6.710938 2.484375 -6.453125 C 2.734375 -6.191406 3.15625 -5.984375 3.75 -5.828125 L 3.75 -8.984375 C 3.207031 -8.929688 2.796875 -8.769531 2.515625 -8.5 C 2.242188 -8.238281 2.109375 -7.90625 2.109375 -7.5 Z M 4.734375 -0.921875 C 5.335938 -0.984375 5.785156 -1.164062 6.078125 -1.46875 C 6.367188 -1.769531 6.515625 -2.171875 6.515625 -2.671875 C 6.515625 -2.984375 6.457031 -3.25 6.34375 -3.46875 C 6.226562 -3.6875 6.039062 -3.875 5.78125 -4.03125 C 5.53125 -4.195312 5.179688 -4.335938 4.734375 -4.453125 Z M 4.734375 -0.921875 "/></g></g></g></svg>