<svg xmlns="http://www.w3.org/2000/svg" xmlns:xlink="http://www.w3.org/1999/xlink" width="50" zoomAndPan="magnify" viewBox="0 0 37.5 37.499999" height="50" preserveAspectRatio="xMidYMid meet" version="1.0"><defs><clipPath id="a822c17fd2"><path d="M 1.296875 1.445312 L 35.339844 1.445312 L 35.339844 35.488281 L 1.296875 35.488281 Z M 1.296875 1.445312 " clip-rule="nonzero"/></clipPath><clipPath id="627cc1c408"><path d="M 18.351562 1.445312 C 8.933594 1.445312 1.296875 9.082031 1.296875 18.5 C 1.296875 27.921875 8.933594 35.558594 18.351562 35.558594 C 27.773438 35.558594 35.410156 27.921875 35.410156 18.5 C 35.410156 9.082031 27.773438 1.445312 18.351562 1.445312 Z M 18.351562 1.445312 " clip-rule="nonzero"/></clipPath><clipPath id="2c162ab5ac"><path d="M 4.148438 4.140625 L 32.714844 4.140625 L 32.714844 32.707031 L 4.148438 32.707031 Z M 4.148438 4.140625 " clip-rule="nonzero"/></clipPath><clipPath id="31211f615a"><path d="M 18.429688 4.140625 C 10.542969 4.140625 4.148438 10.535156 4.148438 18.421875 C 4.148438 26.3125 10.542969 32.707031 18.429688 32.707031 C 26.320312 32.707031 32.714844 26.3125 32.714844 18.421875 C 32.714844 10.535156 26.320312 4.140625 18.429688 4.140625 Z M 18.429688 4.140625 " clip-rule="nonzero"/></clipPath><clipPath id="94106746f1"><path d="M 13 9.554688 L 23 9.554688 L 23 19 L 13 19 Z M 13 9.554688 " clip-rule="nonzero"/></clipPath><clipPath id="f2e988f925"><path d="M 10.757812 19 L 26 19 L 26 27.316406 L 10.757812 27.316406 Z M 10.757812 19 " clip-rule="nonzero"/></clipPath><clipPath id="ce77fcdd9d"><path d="M 28 14 L 37.007812 14 L 37.007812 23 L 28 23 Z M 28 14 " clip-rule="nonzero"/></clipPath><clipPath id="2481b69bfd"><path d="M 14 28 L 23 28 L 23 37.007812 L 14 37.007812 Z M 14 28 " clip-rule="nonzero"/></clipPath><clipPath id="9134d8e0b9"><path d="M 8.253906 5.589844 L 10.367188 5.589844 L 10.367188 7.398438 L 8.253906 7.398438 Z M 8.253906 5.589844 " clip-rule="nonzero"/></clipPath><clipPath id="8fece8cab9"><path d="M 10.363281 6.21875 C 9.398438 7.699219 8.511719 7.476562 8.363281 7.179688 C 8.140625 6.808594 8.363281 5.921875 8.585938 5.699219 C 8.882812 5.476562 10.066406 5.773438 10.066406 5.773438 " clip-rule="nonzero"/></clipPath><clipPath id="1828c464b7"><path d="M 9.808594 4.773438 L 11.921875 4.773438 L 11.921875 6.613281 L 9.808594 6.613281 Z M 9.808594 4.773438 " clip-rule="nonzero"/></clipPath><clipPath id="299f4bc0cf"><path d="M 11.917969 5.476562 C 11.027344 6.957031 10.140625 6.660156 9.917969 6.363281 C 9.695312 6.070312 9.917969 5.105469 10.214844 4.886719 C 10.511719 4.664062 11.621094 4.957031 11.621094 4.957031 " clip-rule="nonzero"/></clipPath><clipPath id="8d35506a49"><path d="M 14.203125 3.175781 L 16.289062 3.175781 L 16.289062 4.984375 L 14.203125 4.984375 Z M 14.203125 3.175781 " clip-rule="nonzero"/></clipPath><clipPath id="44731295f5"><path d="M 16.28125 3.847656 C 15.394531 5.328125 14.507812 5.03125 14.285156 4.738281 C 14.136719 4.441406 14.285156 3.480469 14.582031 3.257812 C 14.875 3.035156 16.0625 3.40625 16.0625 3.40625 " clip-rule="nonzero"/></clipPath><clipPath id="a99e024846"><path d="M 16.273438 2.65625 L 18.519531 2.65625 L 18.519531 4.902344 L 16.273438 4.902344 Z M 16.273438 2.65625 " clip-rule="nonzero"/></clipPath><clipPath id="f6a74e5cdf"><path d="M 16.28125 3.773438 C 18.132812 2.8125 18.429688 4.292969 18.207031 4.515625 C 17.984375 4.738281 16.503906 4.515625 16.355469 4.21875 C 16.207031 3.921875 16.949219 2.664062 17.320312 2.664062 C 17.6875 2.589844 18.503906 3.40625 18.503906 3.773438 C 18.503906 4.144531 17.910156 4.886719 17.542969 4.886719 C 17.171875 4.886719 16.28125 3.847656 16.28125 3.847656 " clip-rule="nonzero"/></clipPath><clipPath id="409263b7c1"><path d="M 16.171875 2.183594 L 18.285156 2.183594 L 18.285156 3.992188 L 16.171875 3.992188 Z M 16.171875 2.183594 " clip-rule="nonzero"/></clipPath><clipPath id="aaae3e1b06"><path d="M 18.28125 2.8125 C 17.394531 4.292969 16.503906 4.070312 16.28125 3.699219 C 16.0625 3.40625 16.28125 2.515625 16.578125 2.292969 C 16.875 2.074219 17.984375 2.367188 17.984375 2.367188 " clip-rule="nonzero"/></clipPath><clipPath id="48eb76343e"><path d="M 14.914062 2.332031 L 17.027344 2.332031 L 17.027344 4.171875 L 14.914062 4.171875 Z M 14.914062 2.332031 " clip-rule="nonzero"/></clipPath><clipPath id="dcbd044e83"><path d="M 17.023438 2.960938 C 16.0625 4.515625 15.246094 4.21875 15.023438 3.921875 C 14.800781 3.550781 15.023438 2.664062 15.320312 2.441406 C 15.542969 2.21875 16.726562 2.515625 16.726562 2.515625 " clip-rule="nonzero"/></clipPath><clipPath id="67bfff551d"><path d="M 7.824219 2.359375 L 16.46875 2.359375 L 16.46875 7.496094 L 7.824219 7.496094 Z M 7.824219 2.359375 " clip-rule="nonzero"/></clipPath><clipPath id="f5f4c0d36b"><path d="M 15.46875 4.589844 C 8.808594 7.476562 8.066406 7.105469 7.917969 6.734375 C 7.699219 6.363281 8.066406 5.550781 8.363281 5.328125 C 8.585938 5.03125 9.175781 5.03125 9.472656 5.105469 C 9.769531 5.253906 10.214844 5.625 10.214844 5.996094 C 10.289062 6.363281 9.992188 7.179688 9.621094 7.402344 C 9.324219 7.550781 8.4375 7.476562 8.140625 7.179688 C 7.917969 6.882812 7.699219 6.144531 7.992188 5.699219 C 8.585938 4.589844 13.394531 2.367188 14.875 2.367188 C 15.542969 2.441406 16.355469 2.886719 16.429688 3.257812 C 16.503906 3.625 15.46875 4.589844 15.46875 4.589844 " clip-rule="nonzero"/></clipPath><clipPath id="95482da051"><path d="M 16.394531 2.035156 L 18.507812 2.035156 L 18.507812 3.875 L 16.394531 3.875 Z M 16.394531 2.035156 " clip-rule="nonzero"/></clipPath><clipPath id="e7817d35a9"><path d="M 18.503906 2.738281 C 17.542969 4.21875 16.652344 3.921875 16.503906 3.625 C 16.28125 3.332031 16.429688 2.367188 16.726562 2.144531 C 17.023438 1.925781 18.207031 2.21875 18.207031 2.21875 " clip-rule="nonzero"/></clipPath><clipPath id="e0bea6fa9d"><path d="M 15.359375 2.183594 L 17.472656 2.183594 L 17.472656 3.992188 L 15.359375 3.992188 Z M 15.359375 2.183594 " clip-rule="nonzero"/></clipPath><clipPath id="f34634d81d"><path d="M 17.46875 2.8125 C 16.503906 4.292969 15.617188 4.070312 15.46875 3.699219 C 15.246094 3.40625 15.394531 2.515625 15.691406 2.292969 C 15.988281 2.074219 17.171875 2.367188 17.171875 2.367188 " clip-rule="nonzero"/></clipPath><clipPath id="b235940846"><path d="M 15.019531 2.808594 L 17.101562 2.808594 L 17.101562 4.613281 L 15.019531 4.613281 Z M 15.019531 2.808594 " clip-rule="nonzero"/></clipPath><clipPath id="be0a01cb19"><path d="M 17.097656 3.480469 C 16.207031 4.957031 15.320312 4.664062 15.097656 4.367188 C 14.949219 4.070312 15.097656 3.109375 15.394531 2.886719 C 15.691406 2.664062 16.875 3.035156 16.875 3.035156 " clip-rule="nonzero"/></clipPath><clipPath id="dc4ef3a704"><path d="M 8.695312 5.027344 L 10.8125 5.027344 L 10.8125 6.835938 L 8.695312 6.835938 Z M 8.695312 5.027344 " clip-rule="nonzero"/></clipPath><clipPath id="d9b09aa96a"><path d="M 10.804688 5.699219 C 9.84375 7.179688 8.957031 6.882812 8.808594 6.585938 C 8.585938 6.292969 8.734375 5.328125 9.03125 5.105469 C 9.324219 4.886719 10.511719 5.253906 10.511719 5.253906 " clip-rule="nonzero"/></clipPath><clipPath id="84b8d3ce31"><path d="M 8.550781 5.738281 L 10.664062 5.738281 L 10.664062 7.574219 L 8.550781 7.574219 Z M 8.550781 5.738281 " clip-rule="nonzero"/></clipPath><clipPath id="7e22cc8b5c"><path d="M 10.65625 6.363281 C 9.695312 7.917969 8.808594 7.625 8.660156 7.328125 C 8.4375 6.957031 8.660156 6.070312 8.957031 5.847656 C 9.175781 5.625 10.363281 5.921875 10.363281 5.921875 " clip-rule="nonzero"/></clipPath><clipPath id="2ebf15a9b2"><path d="M 7.511719 6.179688 L 9.628906 6.179688 L 9.628906 8.019531 L 7.511719 8.019531 Z M 7.511719 6.179688 " clip-rule="nonzero"/></clipPath><clipPath id="d9fa74d357"><path d="M 9.621094 6.882812 C 8.660156 8.363281 7.769531 8.066406 7.625 7.769531 C 7.402344 7.402344 7.625 6.511719 7.84375 6.292969 C 8.140625 6.070312 9.324219 6.363281 9.324219 6.363281 " clip-rule="nonzero"/></clipPath><clipPath id="5bc4f1e570"><path d="M 7.144531 5.882812 L 9.257812 5.882812 L 9.257812 7.722656 L 7.144531 7.722656 Z M 7.144531 5.882812 " clip-rule="nonzero"/></clipPath><clipPath id="8446f79cfa"><path d="M 9.25 6.511719 C 8.289062 8.066406 7.402344 7.769531 7.253906 7.476562 C 7.03125 7.105469 7.179688 6.21875 7.476562 5.996094 C 7.769531 5.773438 8.957031 6.070312 8.957031 6.070312 " clip-rule="nonzero"/></clipPath><clipPath id="b1bacfaa22"><path d="M 7.691406 6.105469 L 9.867188 6.105469 L 9.867188 7.914062 L 7.691406 7.914062 Z M 7.691406 6.105469 " clip-rule="nonzero"/></clipPath><clipPath id="cfa0427d97"><path d="M 9.84375 6.734375 C 8.882812 8.214844 7.992188 7.992188 7.769531 7.625 C 7.625 7.328125 7.769531 6.4375 8.066406 6.21875 C 8.363281 5.996094 9.546875 6.292969 9.546875 6.292969 " clip-rule="nonzero"/></clipPath><clipPath id="5aa263fb42"><path d="M 7.617188 6.28125 L 9.863281 6.28125 L 9.863281 8.53125 L 7.617188 8.53125 Z M 7.617188 6.28125 " clip-rule="nonzero"/></clipPath><clipPath id="3dda1da151"><path d="M 8.734375 6.292969 C 9.695312 8.140625 8.214844 8.4375 7.992188 8.214844 C 7.769531 7.992188 7.992188 6.511719 8.289062 6.363281 C 8.585938 6.21875 9.84375 6.957031 9.84375 7.328125 C 9.917969 7.699219 9.105469 8.511719 8.734375 8.511719 C 8.363281 8.511719 7.625 7.699219 7.625 7.328125 C 7.625 6.957031 8.734375 6.292969 8.734375 6.292969 " clip-rule="nonzero"/></clipPath><clipPath id="f5d2f7e337"><path d="M 29.746094 8.03125 L 31.832031 8.03125 L 31.832031 9.871094 L 29.746094 9.871094 Z M 29.746094 8.03125 " clip-rule="nonzero"/></clipPath><clipPath id="c35437185d"><path d="M 31.824219 8.734375 C 30.9375 10.214844 30.050781 9.917969 29.828125 9.621094 C 29.679688 9.324219 29.828125 8.363281 30.125 8.140625 C 30.417969 7.917969 31.605469 8.214844 31.605469 8.214844 " clip-rule="nonzero"/></clipPath><clipPath id="da7b2c7250"><path d="M 30.304688 8.832031 L 34.613281 8.832031 L 34.613281 17.929688 L 30.304688 17.929688 Z M 30.304688 8.832031 " clip-rule="nonzero"/></clipPath><clipPath id="07ea48ecf6"><path d="M 32.34375 16.875 C 30.34375 9.695312 30.789062 8.957031 31.234375 8.882812 C 31.605469 8.734375 32.34375 9.175781 32.566406 9.472656 C 32.789062 9.769531 32.714844 10.363281 32.566406 10.65625 C 32.417969 10.953125 31.972656 11.324219 31.605469 11.324219 C 31.234375 11.324219 30.417969 10.878906 30.34375 10.511719 C 30.199219 10.140625 30.714844 9.03125 31.085938 8.882812 C 31.457031 8.734375 32.121094 8.957031 32.492188 9.398438 C 33.453125 10.363281 34.785156 14.949219 34.5625 16.355469 C 34.488281 17.097656 34.046875 17.835938 33.675781 17.910156 C 33.304688 17.984375 32.34375 16.875 32.34375 16.875 " clip-rule="nonzero"/></clipPath><clipPath id="7ce97d0dd4"><path d="M 30.308594 9.882812 L 32.421875 9.882812 L 32.421875 11.71875 L 30.308594 11.71875 Z M 30.308594 9.882812 " clip-rule="nonzero"/></clipPath><clipPath id="28b755fde7"><path d="M 32.417969 10.511719 C 31.457031 12.0625 30.566406 11.769531 30.417969 11.472656 C 30.199219 11.101562 30.417969 10.214844 30.714844 9.992188 C 30.9375 9.769531 32.121094 10.066406 32.121094 10.066406 " clip-rule="nonzero"/></clipPath><clipPath id="862aa39035"><path d="M 29.570312 7.585938 L 31.683594 7.585938 L 31.683594 9.394531 L 29.570312 9.394531 Z M 29.570312 7.585938 " clip-rule="nonzero"/></clipPath><clipPath id="cfba019315"><path d="M 31.675781 8.214844 C 30.714844 9.695312 29.828125 9.472656 29.679688 9.105469 C 29.457031 8.808594 29.679688 7.917969 29.902344 7.699219 C 30.199219 7.476562 31.382812 7.769531 31.382812 7.769531 " clip-rule="nonzero"/></clipPath><clipPath id="911a147505"><path d="M 29.789062 8.402344 L 31.90625 8.402344 L 31.90625 10.210938 L 29.789062 10.210938 Z M 29.789062 8.402344 " clip-rule="nonzero"/></clipPath><clipPath id="36ab48efa9"><path d="M 31.898438 9.03125 C 30.9375 10.511719 30.050781 10.289062 29.902344 9.917969 C 29.679688 9.621094 29.828125 8.734375 30.125 8.511719 C 30.417969 8.289062 31.605469 8.585938 31.605469 8.585938 " clip-rule="nonzero"/></clipPath><clipPath id="bf0f3161be"><path d="M 29.304688 8.625 L 31.386719 8.625 L 31.386719 10.402344 L 29.304688 10.402344 Z M 29.304688 8.625 " clip-rule="nonzero"/></clipPath><clipPath id="16afbb01e9"><path d="M 31.382812 9.25 C 30.492188 10.730469 29.605469 10.4375 29.382812 10.140625 C 29.234375 9.84375 29.382812 8.957031 29.679688 8.734375 C 29.976562 8.511719 31.160156 8.808594 31.160156 8.808594 " clip-rule="nonzero"/></clipPath><clipPath id="684b23dfae"><path d="M 30.234375 9.363281 L 32.347656 9.363281 L 32.347656 11.140625 L 30.234375 11.140625 Z M 30.234375 9.363281 " clip-rule="nonzero"/></clipPath><clipPath id="e42a8cebef"><path d="M 32.34375 9.992188 C 31.382812 11.472656 30.492188 11.175781 30.34375 10.878906 C 30.125 10.582031 30.269531 9.695312 30.566406 9.472656 C 30.863281 9.25 32.046875 9.546875 32.046875 9.546875 " clip-rule="nonzero"/></clipPath><clipPath id="e01eff80a8"><path d="M 29.378906 7.660156 L 31.460938 7.660156 L 31.460938 9.5 L 29.378906 9.5 Z M 29.378906 7.660156 " clip-rule="nonzero"/></clipPath><clipPath id="385ef0af64"><path d="M 31.457031 8.363281 C 30.566406 9.84375 29.679688 9.546875 29.457031 9.25 C 29.308594 8.957031 29.457031 7.992188 29.753906 7.769531 C 30.050781 7.550781 31.234375 7.84375 31.234375 7.84375 " clip-rule="nonzero"/></clipPath><clipPath id="6546dea0a8"><path d="M 28.933594 7.585938 L 31.015625 7.585938 L 31.015625 9.425781 L 28.933594 9.425781 Z M 28.933594 7.585938 " clip-rule="nonzero"/></clipPath><clipPath id="754a06aa1f"><path d="M 31.011719 8.289062 C 30.125 9.769531 29.234375 9.472656 29.011719 9.175781 C 28.863281 8.882812 29.011719 7.917969 29.308594 7.699219 C 29.605469 7.476562 30.789062 7.769531 30.789062 7.769531 " clip-rule="nonzero"/></clipPath><clipPath id="ebd2384024"><path d="M 28.753906 8.105469 L 30.871094 8.105469 L 30.871094 9.914062 L 28.753906 9.914062 Z M 28.753906 8.105469 " clip-rule="nonzero"/></clipPath><clipPath id="03aa0016f1"><path d="M 30.863281 8.734375 C 29.902344 10.214844 29.011719 9.992188 28.863281 9.621094 C 28.644531 9.324219 28.863281 8.4375 29.085938 8.214844 C 29.382812 7.992188 30.566406 8.289062 30.566406 8.289062 " clip-rule="nonzero"/></clipPath><clipPath id="d4e4210c8d"><path d="M 28.785156 7.246094 L 30.871094 7.246094 L 30.871094 9.054688 L 28.785156 9.054688 Z M 28.785156 7.246094 " clip-rule="nonzero"/></clipPath><clipPath id="97a01f001b"><path d="M 30.863281 7.917969 C 29.976562 9.398438 29.085938 9.105469 28.863281 8.808594 C 28.71875 8.511719 28.863281 7.625 29.160156 7.328125 C 29.457031 7.105469 30.640625 7.476562 30.640625 7.476562 " clip-rule="nonzero"/></clipPath><clipPath id="2d00e9a8f1"><path d="M 28.605469 7.660156 L 30.722656 7.660156 L 30.722656 9.46875 L 28.605469 9.46875 Z M 28.605469 7.660156 " clip-rule="nonzero"/></clipPath><clipPath id="252bf70cca"><path d="M 30.714844 8.289062 C 29.753906 9.769531 28.863281 9.546875 28.71875 9.175781 C 28.496094 8.882812 28.644531 7.992188 28.9375 7.769531 C 29.234375 7.550781 30.417969 7.84375 30.417969 7.84375 " clip-rule="nonzero"/></clipPath><clipPath id="7c90132536"><path d="M 32.75 16.46875 L 34.867188 16.46875 L 34.867188 18.308594 L 32.75 18.308594 Z M 32.75 16.46875 " clip-rule="nonzero"/></clipPath><clipPath id="1c52bd1b75"><path d="M 34.859375 17.097656 C 33.898438 18.652344 33.011719 18.355469 32.863281 18.058594 C 32.640625 17.6875 32.789062 16.800781 33.082031 16.578125 C 33.378906 16.355469 34.5625 16.652344 34.5625 16.652344 " clip-rule="nonzero"/></clipPath><clipPath id="0e4e83b7ec"><path d="M 33.195312 16.691406 L 35.308594 16.691406 L 35.308594 18.5 L 33.195312 18.5 Z M 33.195312 16.691406 " clip-rule="nonzero"/></clipPath><clipPath id="1b35d0e31c"><path d="M 35.304688 17.320312 C 34.34375 18.800781 33.527344 18.578125 33.304688 18.207031 C 33.082031 17.910156 33.304688 17.023438 33.601562 16.800781 C 33.824219 16.578125 35.007812 16.875 35.007812 16.875 " clip-rule="nonzero"/></clipPath><clipPath id="9a09e49d33"><path d="M 28.976562 7.144531 L 31.089844 7.144531 L 31.089844 8.949219 L 28.976562 8.949219 Z M 28.976562 7.144531 " clip-rule="nonzero"/></clipPath><clipPath id="c12e0fe0aa"><path d="M 31.085938 7.769531 C 30.125 9.25 29.234375 9.03125 29.085938 8.660156 C 28.863281 8.363281 29.011719 7.476562 29.308594 7.253906 C 29.605469 7.03125 30.789062 7.328125 30.789062 7.328125 " clip-rule="nonzero"/></clipPath><clipPath id="89a8d14141"><path d="M 28.5625 7.585938 L 30.648438 7.585938 L 30.648438 9.363281 L 28.5625 9.363281 Z M 28.5625 7.585938 " clip-rule="nonzero"/></clipPath><clipPath id="44e847cb06"><path d="M 30.640625 8.214844 C 29.753906 9.695312 28.863281 9.398438 28.644531 9.105469 C 28.496094 8.808594 28.644531 7.917969 28.9375 7.699219 C 29.234375 7.476562 30.417969 7.769531 30.417969 7.769531 " clip-rule="nonzero"/></clipPath><clipPath id="5c3393435a"><path d="M 28.710938 8.105469 L 30.796875 8.105469 L 30.796875 9.914062 L 28.710938 9.914062 Z M 28.710938 8.105469 " clip-rule="nonzero"/></clipPath><clipPath id="0f88122a9f"><path d="M 30.789062 8.734375 C 29.902344 10.214844 29.011719 9.992188 28.792969 9.621094 C 28.644531 9.324219 28.792969 8.4375 29.085938 8.214844 C 29.382812 7.992188 30.566406 8.289062 30.566406 8.289062 " clip-rule="nonzero"/></clipPath><clipPath id="799259673b"><path d="M 32.011719 16.203125 L 34.125 16.203125 L 34.125 18.011719 L 32.011719 18.011719 Z M 32.011719 16.203125 " clip-rule="nonzero"/></clipPath><clipPath id="913704ab2e"><path d="M 34.121094 16.875 C 33.15625 18.355469 32.269531 18.058594 32.121094 17.761719 C 31.898438 17.46875 32.121094 16.503906 32.417969 16.28125 C 32.640625 16.0625 33.824219 16.429688 33.824219 16.429688 " clip-rule="nonzero"/></clipPath><clipPath id="b402535b24"><path d="M 32.234375 16.941406 L 34.347656 16.941406 L 34.347656 18.75 L 32.234375 18.75 Z M 32.234375 16.941406 " clip-rule="nonzero"/></clipPath><clipPath id="322ce9ef47"><path d="M 34.34375 17.613281 C 33.378906 19.09375 32.492188 18.800781 32.34375 18.503906 C 32.121094 18.207031 32.269531 17.246094 32.566406 17.023438 C 32.863281 16.800781 34.046875 17.171875 34.046875 17.171875 " clip-rule="nonzero"/></clipPath><clipPath id="2a7614db1f"><path d="M 27.347656 29.199219 L 29.464844 29.199219 L 29.464844 30.976562 L 27.347656 30.976562 Z M 27.347656 29.199219 " clip-rule="nonzero"/></clipPath><clipPath id="5d2c06c221"><path d="M 29.457031 29.828125 C 28.496094 31.308594 27.605469 31.011719 27.457031 30.714844 C 27.238281 30.417969 27.386719 29.53125 27.679688 29.308594 C 27.976562 29.085938 29.160156 29.382812 29.160156 29.382812 " clip-rule="nonzero"/></clipPath><clipPath id="7a2130e6df"><path d="M 20.269531 30.445312 L 28.867188 30.445312 L 28.867188 33.90625 L 20.269531 33.90625 Z M 20.269531 30.445312 " clip-rule="nonzero"/></clipPath><clipPath id="3c95683932"><path d="M 27.3125 31.160156 C 21.90625 33.601562 20.945312 34.046875 20.574219 33.824219 C 20.355469 33.75 20.207031 33.378906 20.355469 33.082031 C 20.722656 32.269531 27.902344 30.492188 28.644531 30.9375 C 28.863281 31.085938 28.792969 31.675781 28.792969 31.675781 C 28.792969 31.675781 28.644531 30.9375 28.644531 30.9375 C 28.644531 30.9375 28.9375 31.457031 28.792969 31.675781 C 28.496094 32.195312 26.125 32.417969 24.792969 32.789062 C 23.386719 33.15625 21.09375 34.195312 20.574219 33.824219 C 20.355469 33.675781 20.28125 33.304688 20.425781 33.011719 C 20.871094 32.269531 26.273438 30.199219 27.015625 30.492188 C 27.3125 30.566406 27.3125 31.160156 27.3125 31.160156 " clip-rule="nonzero"/></clipPath><clipPath id="93454bbf8f"><path d="M 19.058594 29.570312 L 27.792969 29.570312 L 27.792969 34.066406 L 19.058594 34.066406 Z M 19.058594 29.570312 " clip-rule="nonzero"/></clipPath><clipPath id="77baf663e2"><path d="M 26.71875 32.863281 C 19.6875 34.636719 19.167969 34.046875 19.09375 33.601562 C 19.019531 33.304688 19.316406 32.863281 19.6875 32.566406 C 20.648438 31.824219 24.644531 31.824219 25.90625 31.085938 C 26.644531 30.640625 27.089844 29.605469 27.386719 29.605469 C 27.605469 29.679688 27.828125 30.199219 27.753906 30.34375 C 27.679688 30.417969 27.089844 30.34375 27.015625 30.269531 C 27.015625 30.125 27.386719 29.605469 27.457031 29.605469 C 27.605469 29.605469 27.828125 30.050781 27.753906 30.269531 C 27.679688 30.714844 26.71875 31.53125 25.832031 31.972656 C 24.425781 32.640625 19.835938 32.492188 19.6875 33.082031 C 19.613281 33.378906 20.132812 33.898438 20.574219 34.046875 C 21.6875 34.269531 25.832031 31.75 26.496094 32.121094 C 26.71875 32.269531 26.71875 32.863281 26.71875 32.863281 " clip-rule="nonzero"/></clipPath><clipPath id="fa4977f845"><path d="M 20.390625 33.066406 L 20.746094 33.066406 L 20.746094 33.316406 L 20.390625 33.316406 Z M 20.390625 33.066406 " clip-rule="nonzero"/></clipPath><clipPath id="ebfd21d1e3"><path d="M 20.722656 33.230469 C 20.058594 33.453125 20.648438 33.082031 20.648438 33.082031 " clip-rule="nonzero"/></clipPath><clipPath id="ef70d5fb0e"><path d="M 22.464844 32.660156 L 25.558594 32.660156 L 25.558594 33.742188 L 22.464844 33.742188 Z M 22.464844 32.660156 " clip-rule="nonzero"/></clipPath><clipPath id="c387109ee3"><path d="M 25.535156 33.378906 C 19.316406 34.5625 24.351562 32.417969 25.164062 32.714844 C 25.460938 32.789062 25.535156 33.378906 25.535156 33.378906 " clip-rule="nonzero"/></clipPath><clipPath id="db25257c90"><path d="M 20.785156 33.878906 L 21.1875 33.878906 L 21.1875 34.15625 L 20.785156 34.15625 Z M 20.785156 33.878906 " clip-rule="nonzero"/></clipPath><clipPath id="884db46a05"><path d="M 21.167969 34.046875 C 20.425781 34.34375 21.019531 33.898438 21.019531 33.898438 " clip-rule="nonzero"/></clipPath><clipPath id="f08d85a239"><path d="M 19.429688 32.675781 L 21.542969 32.675781 L 21.542969 34.515625 L 19.429688 34.515625 Z M 19.429688 32.675781 " clip-rule="nonzero"/></clipPath><clipPath id="778de56c1b"><path d="M 21.539062 33.304688 C 20.574219 34.859375 19.6875 34.5625 19.539062 34.269531 C 19.316406 33.898438 19.464844 33.011719 19.761719 32.789062 C 20.058594 32.566406 21.242188 32.863281 21.242188 32.863281 " clip-rule="nonzero"/></clipPath><clipPath id="ab218e8ba3"><path d="M 21.648438 33.078125 L 23.765625 33.078125 L 23.765625 34.886719 L 21.648438 34.886719 Z M 21.648438 33.078125 " clip-rule="nonzero"/></clipPath><clipPath id="2ca6dfa0dd"><path d="M 23.757812 33.75 C 22.796875 35.230469 21.90625 34.933594 21.761719 34.636719 C 21.539062 34.34375 21.761719 33.453125 21.980469 33.15625 C 22.277344 32.9375 23.460938 33.304688 23.460938 33.304688 " clip-rule="nonzero"/></clipPath><clipPath id="8f9abc553f"><path d="M 22.6875 32.234375 L 24.800781 32.234375 L 24.800781 34.070312 L 22.6875 34.070312 Z M 22.6875 32.234375 " clip-rule="nonzero"/></clipPath><clipPath id="519459ad6a"><path d="M 24.792969 32.863281 C 23.832031 34.417969 22.945312 34.121094 22.796875 33.824219 C 22.574219 33.453125 22.796875 32.566406 23.019531 32.34375 C 23.3125 32.121094 24.5 32.417969 24.5 32.417969 " clip-rule="nonzero"/></clipPath><clipPath id="f0ff40209d"><path d="M 20.167969 32.824219 L 22.285156 32.824219 L 22.285156 34.664062 L 20.167969 34.664062 Z M 20.167969 32.824219 " clip-rule="nonzero"/></clipPath><clipPath id="4c6a696f0b"><path d="M 22.277344 33.527344 C 21.316406 35.007812 20.425781 34.710938 20.28125 34.417969 C 20.058594 34.121094 20.207031 33.15625 20.5 32.9375 C 20.796875 32.714844 21.980469 33.011719 21.980469 33.011719 " clip-rule="nonzero"/></clipPath><clipPath id="209e56e0e1"><path d="M 21.058594 33 L 23.171875 33 L 23.171875 34.75 L 21.058594 34.75 Z M 21.058594 33 " clip-rule="nonzero"/></clipPath><clipPath id="27938217c1"><path d="M 23.167969 33.601562 C 22.203125 35.082031 21.316406 34.785156 21.167969 34.488281 C 20.945312 34.195312 21.167969 33.304688 21.464844 33.082031 C 21.6875 32.863281 22.871094 33.15625 22.871094 33.15625 " clip-rule="nonzero"/></clipPath><clipPath id="6231b786a1"><path d="M 20.613281 33 L 22.726562 33 L 22.726562 34.75 L 20.613281 34.75 Z M 20.613281 33 " clip-rule="nonzero"/></clipPath><clipPath id="cd0d244d4e"><path d="M 22.722656 33.601562 C 21.761719 35.082031 20.945312 34.785156 20.722656 34.488281 C 20.5 34.195312 20.722656 33.304688 21.019531 33.082031 C 21.242188 32.863281 22.425781 33.15625 22.425781 33.15625 " clip-rule="nonzero"/></clipPath><clipPath id="748a6426a4"><path d="M 19.652344 33 L 21.765625 33 L 21.765625 34.75 L 19.652344 34.75 Z M 19.652344 33 " clip-rule="nonzero"/></clipPath><clipPath id="f6e104e814"><path d="M 21.761719 33.601562 C 20.796875 35.082031 19.910156 34.785156 19.761719 34.488281 C 19.539062 34.195312 19.761719 33.304688 19.984375 33.082031 C 20.28125 32.863281 21.464844 33.15625 21.464844 33.15625 " clip-rule="nonzero"/></clipPath><clipPath id="9bafa0d531"><path d="M 19.207031 33.078125 L 21.320312 33.078125 L 21.320312 34.886719 L 19.207031 34.886719 Z M 19.207031 33.078125 " clip-rule="nonzero"/></clipPath><clipPath id="f57a8873f7"><path d="M 21.316406 33.75 C 20.355469 35.230469 19.464844 34.933594 19.316406 34.636719 C 19.09375 34.34375 19.316406 33.453125 19.539062 33.15625 C 19.835938 32.9375 21.019531 33.304688 21.019531 33.304688 " clip-rule="nonzero"/></clipPath><clipPath id="62a9db1583"><path d="M 18.613281 32.898438 L 20.730469 32.898438 L 20.730469 34.707031 L 18.613281 34.707031 Z M 18.613281 32.898438 " clip-rule="nonzero"/></clipPath><clipPath id="95c4ff4466"><path d="M 20.722656 33.527344 C 19.761719 35.007812 18.875 34.785156 18.726562 34.488281 C 18.503906 34.121094 18.652344 33.230469 18.949219 33.011719 C 19.242188 32.789062 20.425781 33.082031 20.425781 33.082031 " clip-rule="nonzero"/></clipPath><clipPath id="1e9b3758b9"><path d="M 18.128906 33.195312 L 20.210938 33.195312 L 20.210938 35 L 18.128906 35 Z M 18.128906 33.195312 " clip-rule="nonzero"/></clipPath><clipPath id="571d7a501f"><path d="M 20.207031 33.824219 C 19.316406 35.304688 18.429688 35.082031 18.207031 34.710938 C 18.058594 34.417969 18.207031 33.527344 18.503906 33.304688 C 18.800781 33.082031 19.984375 33.378906 19.984375 33.378906 " clip-rule="nonzero"/></clipPath><clipPath id="5ccb129a37"><path d="M 18.246094 32.632812 L 20.359375 32.632812 L 20.359375 34.441406 L 18.246094 34.441406 Z M 18.246094 32.632812 " clip-rule="nonzero"/></clipPath><clipPath id="1f3eb96b56"><path d="M 20.355469 33.304688 C 19.390625 34.785156 18.578125 34.488281 18.355469 34.195312 C 18.132812 33.898438 18.355469 33.011719 18.652344 32.714844 C 18.949219 32.492188 20.058594 32.863281 20.058594 32.863281 " clip-rule="nonzero"/></clipPath><clipPath id="6495fa2fce"><path d="M 18.46875 32.410156 L 20.582031 32.410156 L 20.582031 34.21875 L 18.46875 34.21875 Z M 18.46875 32.410156 " clip-rule="nonzero"/></clipPath><clipPath id="16ed9462f4"><path d="M 20.574219 33.082031 C 19.613281 34.5625 18.726562 34.269531 18.578125 33.972656 C 18.355469 33.675781 18.503906 32.714844 18.800781 32.492188 C 19.09375 32.269531 20.28125 32.640625 20.28125 32.640625 " clip-rule="nonzero"/></clipPath><clipPath id="ea396fc4e7"><path d="M 27.347656 29.496094 L 29.464844 29.496094 L 29.464844 31.304688 L 27.347656 31.304688 Z M 27.347656 29.496094 " clip-rule="nonzero"/></clipPath><clipPath id="05f8dd9d64"><path d="M 29.457031 30.125 C 28.570312 31.605469 27.679688 31.382812 27.457031 31.011719 C 27.238281 30.714844 27.457031 29.828125 27.753906 29.605469 C 28.050781 29.382812 29.160156 29.679688 29.160156 29.679688 " clip-rule="nonzero"/></clipPath><clipPath id="78d0206b56"><path d="M 27.597656 29.300781 L 29.910156 29.300781 L 29.910156 31.546875 L 27.597656 31.546875 Z M 27.597656 29.300781 " clip-rule="nonzero"/></clipPath><clipPath id="7e277ce9fe"><path d="M 28.792969 29.308594 C 29.679688 31.160156 28.273438 31.457031 28.050781 31.234375 C 27.753906 30.9375 27.976562 29.53125 28.347656 29.382812 C 28.644531 29.234375 29.828125 29.976562 29.902344 30.34375 C 29.976562 30.714844 29.160156 31.457031 28.792969 31.53125 C 28.421875 31.53125 27.605469 31.011719 27.605469 30.640625 C 27.53125 30.269531 28.570312 29.308594 28.570312 29.308594 " clip-rule="nonzero"/></clipPath><clipPath id="b3746c7aa0"><path d="M 27.71875 28.828125 L 29.832031 28.828125 L 29.832031 30.636719 L 27.71875 30.636719 Z M 27.71875 28.828125 " clip-rule="nonzero"/></clipPath><clipPath id="8f47609a41"><path d="M 29.828125 29.457031 C 28.863281 30.9375 27.976562 30.714844 27.828125 30.34375 C 27.605469 30.050781 27.753906 29.160156 28.050781 28.9375 C 28.347656 28.71875 29.53125 29.011719 29.53125 29.011719 " clip-rule="nonzero"/></clipPath><clipPath id="65b8ba12ef"><path d="M 25.644531 29.671875 L 27.761719 29.671875 L 27.761719 31.480469 L 25.644531 31.480469 Z M 25.644531 29.671875 " clip-rule="nonzero"/></clipPath><clipPath id="e358c8ce8b"><path d="M 27.753906 30.34375 C 26.792969 31.824219 25.90625 31.53125 25.757812 31.234375 C 25.535156 30.9375 25.683594 29.976562 25.980469 29.753906 C 26.273438 29.53125 27.457031 29.902344 27.457031 29.902344 " clip-rule="nonzero"/></clipPath><clipPath id="07f98b145d"><path d="M 26.976562 29.863281 L 29.09375 29.863281 L 29.09375 31.671875 L 26.976562 31.671875 Z M 26.976562 29.863281 " clip-rule="nonzero"/></clipPath><clipPath id="51fedd8a40"><path d="M 29.085938 30.492188 C 28.125 31.972656 27.238281 31.75 27.089844 31.457031 C 26.867188 31.085938 27.015625 30.199219 27.3125 29.976562 C 27.605469 29.753906 28.792969 30.050781 28.792969 30.050781 " clip-rule="nonzero"/></clipPath><clipPath id="91eb7bd4fc"><path d="M 24.566406 31.492188 L 26.652344 31.492188 L 26.652344 33.269531 L 24.566406 33.269531 Z M 24.566406 31.492188 " clip-rule="nonzero"/></clipPath><clipPath id="29f155929a"><path d="M 26.644531 32.121094 C 25.757812 33.601562 24.867188 33.304688 24.644531 33.011719 C 24.5 32.714844 24.644531 31.824219 24.941406 31.605469 C 25.238281 31.382812 26.421875 31.675781 26.421875 31.675781 " clip-rule="nonzero"/></clipPath><clipPath id="e499d77876"><path d="M 23.234375 32.011719 L 25.316406 32.011719 L 25.316406 33.851562 L 23.234375 33.851562 Z M 23.234375 32.011719 " clip-rule="nonzero"/></clipPath><clipPath id="d257cdf699"><path d="M 25.3125 32.640625 C 24.425781 34.195312 23.535156 33.898438 23.3125 33.601562 C 23.167969 33.230469 23.3125 32.34375 23.609375 32.121094 C 23.90625 31.898438 25.089844 32.195312 25.089844 32.195312 " clip-rule="nonzero"/></clipPath><clipPath id="b91b24d356"><path d="M 22.421875 32.160156 L 24.503906 32.160156 L 24.503906 33.96875 L 22.421875 33.96875 Z M 22.421875 32.160156 " clip-rule="nonzero"/></clipPath><clipPath id="f777f4b091"><path d="M 24.5 32.789062 C 23.609375 34.269531 22.722656 34.046875 22.5 33.675781 C 22.351562 33.378906 22.5 32.492188 22.796875 32.269531 C 23.09375 32.046875 24.277344 32.34375 24.277344 32.34375 " clip-rule="nonzero"/></clipPath><clipPath id="3f8a140f35"><path d="M 25.867188 31 L 27.984375 31 L 27.984375 32.78125 L 25.867188 32.78125 Z M 25.867188 31 " clip-rule="nonzero"/></clipPath><clipPath id="8c2c79105f"><path d="M 27.976562 31.605469 C 27.015625 33.082031 26.125 32.863281 25.980469 32.492188 C 25.757812 32.195312 25.980469 31.308594 26.199219 31.085938 C 26.496094 30.863281 27.679688 31.160156 27.679688 31.160156 " clip-rule="nonzero"/></clipPath><clipPath id="d9a1dd2ded"><path d="M 27.675781 28.753906 L 29.851562 28.753906 L 29.851562 30.5625 L 27.675781 30.5625 Z M 27.675781 28.753906 " clip-rule="nonzero"/></clipPath><clipPath id="f322e3e4a4"><path d="M 29.828125 29.382812 C 28.863281 30.863281 27.976562 30.640625 27.753906 30.269531 C 27.605469 29.976562 27.753906 29.085938 28.050781 28.863281 C 28.347656 28.644531 29.53125 28.9375 29.53125 28.9375 " clip-rule="nonzero"/></clipPath><clipPath id="e2023a04a3"><path d="M 27.601562 28.339844 L 29.777344 28.339844 L 29.777344 30.148438 L 27.601562 30.148438 Z M 27.601562 28.339844 " clip-rule="nonzero"/></clipPath><clipPath id="9472fcb5b3"><path d="M 29.753906 29.011719 C 28.792969 30.492188 27.902344 30.199219 27.679688 29.902344 C 27.53125 29.605469 27.679688 28.644531 27.976562 28.421875 C 28.273438 28.199219 29.457031 28.570312 29.457031 28.570312 " clip-rule="nonzero"/></clipPath><clipPath id="cb17e680b2"><path d="M 28.238281 29 L 30.351562 29 L 30.351562 30.816406 L 28.238281 30.816406 Z M 28.238281 29 " clip-rule="nonzero"/></clipPath><clipPath id="6ca2d8330f"><path d="M 30.34375 29.679688 C 29.382812 31.160156 28.496094 30.863281 28.347656 30.566406 C 28.125 30.269531 28.273438 29.308594 28.570312 29.085938 C 28.863281 28.863281 30.050781 29.160156 30.050781 29.160156 " clip-rule="nonzero"/></clipPath><clipPath id="746e56b169"><path d="M 27.007812 29.125 L 29.09375 29.125 L 29.09375 30.933594 L 27.007812 30.933594 Z M 27.007812 29.125 " clip-rule="nonzero"/></clipPath><clipPath id="c3f4977242"><path d="M 29.085938 29.753906 C 28.199219 31.234375 27.3125 31.011719 27.089844 30.640625 C 26.941406 30.34375 27.089844 29.457031 27.386719 29.234375 C 27.679688 29.011719 28.863281 29.308594 28.863281 29.308594 " clip-rule="nonzero"/></clipPath><clipPath id="0c486f8cf3"><path d="M 3.75 25.660156 L 7.203125 25.660156 L 7.203125 29.589844 L 3.75 29.589844 Z M 3.75 25.660156 " clip-rule="nonzero"/></clipPath><clipPath id="0e08bbb164"><path d="M 5.402344 29.382812 C 3.921875 26.125 5.03125 25.609375 5.402344 25.683594 C 5.699219 25.757812 5.996094 26.273438 5.996094 26.570312 C 5.996094 26.941406 5.625 27.605469 5.328125 27.753906 C 4.957031 27.902344 4.21875 27.679688 3.996094 27.386719 C 3.773438 27.164062 3.699219 26.644531 3.847656 26.347656 C 4.070312 26.050781 5.105469 25.609375 5.625 25.832031 C 6.292969 26.125 7.253906 27.976562 7.179688 28.644531 C 7.179688 29.011719 6.957031 29.382812 6.660156 29.53125 C 6.363281 29.679688 5.402344 29.382812 5.402344 29.382812 " clip-rule="nonzero"/></clipPath><clipPath id="f56a46f381"><path d="M 5.882812 27 L 8 27 L 8 28.816406 L 5.882812 28.816406 Z M 5.882812 27 " clip-rule="nonzero"/></clipPath><clipPath id="a16295f9ec"><path d="M 7.992188 27.679688 C 7.03125 29.160156 6.21875 28.863281 5.996094 28.570312 C 5.773438 28.273438 5.996094 27.3125 6.292969 27.089844 C 6.511719 26.867188 7.699219 27.164062 7.699219 27.164062 " clip-rule="nonzero"/></clipPath><clipPath id="4b468ba673"><path d="M 1.976562 19.847656 L 5.867188 19.847656 L 5.867188 26.527344 L 1.976562 26.527344 Z M 1.976562 19.847656 " clip-rule="nonzero"/></clipPath><clipPath id="36ad43937d"><path d="M 4.738281 26.496094 C 2.515625 24.277344 1.851562 21.613281 2 20.722656 C 2.074219 20.28125 2.367188 19.984375 2.589844 19.910156 C 2.8125 19.761719 3.40625 19.984375 3.550781 20.207031 C 3.699219 20.425781 3.480469 21.242188 3.257812 21.390625 C 3.035156 21.464844 2.074219 21.019531 2 20.796875 C 2 20.574219 2.960938 19.835938 3.257812 19.984375 C 3.847656 20.207031 3.699219 23.386719 4.292969 24.351562 C 4.738281 25.015625 5.847656 25.386719 5.847656 25.757812 C 5.773438 26.050781 4.738281 26.496094 4.738281 26.496094 " clip-rule="nonzero"/></clipPath><clipPath id="34357a28c4"><path d="M 3.761719 24.710938 L 5.339844 24.710938 L 5.339844 26.226562 L 3.761719 26.226562 Z M 3.761719 24.710938 " clip-rule="nonzero"/></clipPath><clipPath id="a32f906048"><path d="M 4.515625 26.199219 C 3.921875 24.941406 4.886719 24.792969 5.03125 24.941406 C 5.253906 25.089844 5.03125 26.050781 4.886719 26.125 C 4.664062 26.199219 3.847656 25.757812 3.773438 25.535156 C 3.773438 25.3125 4.292969 24.71875 4.515625 24.71875 C 4.8125 24.71875 5.253906 25.089844 5.328125 25.3125 C 5.328125 25.609375 4.589844 26.199219 4.589844 26.199219 " clip-rule="nonzero"/></clipPath><clipPath id="0438314a90"><path d="M 4.265625 24.054688 L 5.726562 24.054688 L 5.726562 25.261719 L 4.265625 25.261719 Z M 4.265625 24.054688 " clip-rule="nonzero"/></clipPath><clipPath id="de4da953ab"><path d="M 5.699219 24.5 C 5.03125 25.460938 4.441406 25.3125 4.367188 25.089844 C 4.21875 24.867188 4.292969 24.277344 4.515625 24.128906 C 4.738281 23.980469 5.476562 24.128906 5.476562 24.128906 " clip-rule="nonzero"/></clipPath><clipPath id="7db72e9cc8"><path d="M 3.851562 22.574219 L 5.28125 22.574219 L 5.28125 23.78125 L 3.851562 23.78125 Z M 3.851562 22.574219 " clip-rule="nonzero"/></clipPath><clipPath id="18db1fc070"><path d="M 5.253906 23.019531 C 4.589844 23.980469 4.070312 23.832031 3.921875 23.609375 C 3.773438 23.386719 3.921875 22.796875 4.070312 22.648438 C 4.292969 22.5 5.03125 22.722656 5.03125 22.722656 " clip-rule="nonzero"/></clipPath><clipPath id="3779c56482"><path d="M 3.554688 21.6875 L 4.984375 21.6875 L 4.984375 22.894531 L 3.554688 22.894531 Z M 3.554688 21.6875 " clip-rule="nonzero"/></clipPath><clipPath id="c1d31a29a9"><path d="M 4.957031 22.128906 C 4.367188 23.09375 3.773438 22.945312 3.625 22.722656 C 3.480469 22.5 3.625 21.90625 3.847656 21.761719 C 3.996094 21.613281 4.8125 21.832031 4.8125 21.832031 " clip-rule="nonzero"/></clipPath><clipPath id="b3af3837a6"><path d="M 2.960938 19.394531 L 4.394531 19.394531 L 4.394531 20.628906 L 2.960938 20.628906 Z M 2.960938 19.394531 " clip-rule="nonzero"/></clipPath><clipPath id="b7217f825b"><path d="M 4.367188 19.835938 C 3.773438 20.871094 3.183594 20.648438 3.035156 20.425781 C 2.886719 20.28125 3.035156 19.613281 3.183594 19.464844 C 3.40625 19.316406 4.21875 19.539062 4.21875 19.539062 " clip-rule="nonzero"/></clipPath><clipPath id="3946227221"><path d="M 6.738281 27.164062 L 8.167969 27.164062 L 8.167969 28.371094 L 6.738281 28.371094 Z M 6.738281 27.164062 " clip-rule="nonzero"/></clipPath><clipPath id="60caf88bb0"><path d="M 8.140625 27.605469 C 7.550781 28.570312 6.957031 28.421875 6.808594 28.199219 C 6.660156 27.976562 6.808594 27.386719 6.957031 27.238281 C 7.179688 27.089844 7.992188 27.3125 7.992188 27.3125 " clip-rule="nonzero"/></clipPath><clipPath id="d311424da3"><path d="M 6.355469 27.742188 L 7.960938 27.742188 L 7.960938 29.351562 L 6.355469 29.351562 Z M 6.355469 27.742188 " clip-rule="nonzero"/></clipPath><clipPath id="13fb86c984"><path d="M 7.105469 27.753906 C 8.066406 28.570312 7.476562 29.234375 7.253906 29.234375 C 6.957031 29.160156 6.585938 28.273438 6.660156 28.125 C 6.808594 27.902344 7.769531 27.828125 7.917969 28.050781 C 8.066406 28.199219 7.625 29.160156 7.402344 29.308594 C 7.105469 29.382812 6.511719 29.160156 6.363281 28.9375 C 6.292969 28.644531 6.660156 27.902344 6.660156 27.902344 " clip-rule="nonzero"/></clipPath><clipPath id="3f0f5ba321"><path d="M 5.835938 26.941406 L 7.265625 26.941406 L 7.265625 28.398438 L 5.835938 28.398438 Z M 5.835938 26.941406 " clip-rule="nonzero"/></clipPath><clipPath id="52a48c320e"><path d="M 5.847656 27.976562 C 6.660156 26.867188 7.253906 27.605469 7.253906 27.828125 C 7.179688 28.050781 6.21875 28.347656 6.070312 28.199219 C 5.847656 28.050781 5.921875 27.089844 6.144531 27.015625 C 6.363281 26.867188 7.03125 27.089844 7.179688 27.3125 C 7.328125 27.53125 7.105469 28.273438 6.882812 28.347656 C 6.660156 28.496094 5.921875 28.125 5.921875 28.125 " clip-rule="nonzero"/></clipPath><clipPath id="954f319a83"><path d="M 5.015625 25.589844 L 6.976562 25.589844 L 6.976562 27.917969 L 5.015625 27.917969 Z M 5.015625 25.589844 " clip-rule="nonzero"/></clipPath><clipPath id="a74a98ccb3"><path d="M 5.03125 26.71875 C 5.847656 25.609375 6.4375 26.421875 6.363281 26.644531 C 6.363281 26.867188 5.328125 27.089844 5.179688 26.941406 C 5.03125 26.792969 5.328125 25.757812 5.550781 25.609375 C 5.847656 25.535156 6.734375 26.125 6.882812 26.496094 C 7.03125 26.867188 6.957031 27.386719 6.734375 27.679688 C 6.511719 27.902344 5.625 27.902344 5.625 27.902344 " clip-rule="nonzero"/></clipPath><clipPath id="725fdff844"><path d="M 4.546875 24.636719 L 6.230469 24.636719 L 6.230469 26.464844 L 4.546875 26.464844 Z M 4.546875 24.636719 " clip-rule="nonzero"/></clipPath><clipPath id="5e9303a91f"><path d="M 4.589844 25.683594 C 5.476562 24.644531 6.070312 25.535156 5.921875 25.683594 C 5.847656 25.90625 4.738281 25.980469 4.589844 25.757812 C 4.441406 25.609375 4.886719 24.71875 5.179688 24.644531 C 5.402344 24.644531 6.070312 25.164062 6.144531 25.460938 C 6.292969 25.757812 6.144531 26.199219 5.921875 26.347656 C 5.699219 26.570312 4.8125 26.347656 4.8125 26.347656 " clip-rule="nonzero"/></clipPath><clipPath id="6431426781"><path d="M 4.050781 23.488281 L 5.984375 23.488281 L 5.984375 25.785156 L 4.050781 25.785156 Z M 4.050781 23.488281 " clip-rule="nonzero"/></clipPath><clipPath id="6e8379789a"><path d="M 4.070312 24.574219 C 4.886719 23.460938 5.476562 24.277344 5.402344 24.5 C 5.328125 24.71875 4.367188 24.941406 4.21875 24.867188 C 4.070312 24.71875 4.292969 23.609375 4.589844 23.535156 C 4.8125 23.386719 5.699219 23.980469 5.921875 24.425781 C 6.070312 24.71875 5.921875 25.3125 5.773438 25.535156 C 5.550781 25.757812 4.664062 25.757812 4.664062 25.757812 " clip-rule="nonzero"/></clipPath><clipPath id="577ff079ee"><path d="M 3.019531 22.394531 L 4.523438 22.394531 L 4.523438 23.699219 L 3.019531 23.699219 Z M 3.019531 22.394531 " clip-rule="nonzero"/></clipPath><clipPath id="665976cd1f"><path d="M 3.257812 23.460938 C 3.480469 22.203125 4.367188 22.425781 4.441406 22.648438 C 4.515625 22.871094 3.996094 23.683594 3.773438 23.683594 C 3.480469 23.683594 2.960938 22.796875 3.035156 22.648438 C 3.183594 22.425781 4.21875 22.351562 4.441406 22.5 C 4.589844 22.648438 4.515625 23.3125 4.367188 23.535156 C 4.21875 23.683594 3.40625 23.609375 3.40625 23.609375 " clip-rule="nonzero"/></clipPath><clipPath id="8e144103a2"><path d="M 2.726562 21.6875 L 4.304688 21.6875 L 4.304688 23.234375 L 2.726562 23.234375 Z M 2.726562 21.6875 " clip-rule="nonzero"/></clipPath><clipPath id="e729318187"><path d="M 2.738281 22.574219 C 3.40625 21.539062 4.21875 22.054688 4.21875 22.277344 C 4.21875 22.5 3.332031 23.09375 3.183594 22.945312 C 2.960938 22.871094 2.738281 21.90625 2.886719 21.761719 C 3.109375 21.613281 4.070312 21.832031 4.21875 22.128906 C 4.367188 22.351562 4.21875 23.019531 3.996094 23.167969 C 3.773438 23.3125 2.960938 23.019531 2.960938 23.019531 " clip-rule="nonzero"/></clipPath><clipPath id="9cf96f1a9a"><path d="M 2.429688 20.828125 L 4.007812 20.828125 L 4.007812 22.289062 L 2.429688 22.289062 Z M 2.429688 20.828125 " clip-rule="nonzero"/></clipPath><clipPath id="abc68ec262"><path d="M 2.441406 21.613281 C 3.332031 20.648438 3.996094 21.316406 3.921875 21.613281 C 3.921875 21.832031 2.960938 22.203125 2.8125 22.054688 C 2.589844 21.980469 2.589844 20.945312 2.738281 20.871094 C 2.960938 20.722656 3.921875 21.167969 3.996094 21.464844 C 4.070312 21.6875 3.699219 22.203125 3.480469 22.277344 C 3.257812 22.351562 2.515625 21.90625 2.515625 21.90625 " clip-rule="nonzero"/></clipPath><clipPath id="a7d13557bd"><path d="M 2.476562 20 L 4.054688 20 L 4.054688 21.738281 L 2.476562 21.738281 Z M 2.476562 20 " clip-rule="nonzero"/></clipPath><clipPath id="58fcb642e7"><path d="M 3.996094 20.574219 C 3.332031 21.761719 2.664062 21.09375 2.664062 20.871094 C 2.738281 20.648438 3.847656 20.355469 3.996094 20.5 C 4.144531 20.648438 3.921875 21.613281 3.699219 21.6875 C 3.40625 21.832031 2.664062 21.390625 2.515625 21.167969 C 2.441406 20.871094 2.589844 20.28125 2.8125 20.132812 C 2.960938 19.910156 3.699219 20.058594 3.699219 20.058594 " clip-rule="nonzero"/></clipPath><clipPath id="81f9efb6f3"><path d="M 3.492188 21.863281 L 5.355469 21.863281 L 5.355469 24.179688 L 3.492188 24.179688 Z M 3.492188 21.863281 " clip-rule="nonzero"/></clipPath><clipPath id="16d1b27f0f"><path d="M 4.886719 22.128906 C 5.03125 24.128906 3.996094 24.054688 3.847656 23.90625 C 3.773438 23.683594 4.070312 22.945312 4.292969 22.871094 C 4.515625 22.796875 5.328125 23.386719 5.328125 23.535156 C 5.253906 23.757812 4.367188 24.277344 4.070312 24.128906 C 3.699219 23.980469 3.332031 22.203125 3.625 21.90625 C 3.773438 21.761719 4.886719 22.128906 4.886719 22.128906 " clip-rule="nonzero"/></clipPath><clipPath id="c9913b8c49"><path d="M 3.882812 23.199219 L 5.429688 23.199219 L 5.429688 24.777344 L 3.882812 24.777344 Z M 3.882812 23.199219 " clip-rule="nonzero"/></clipPath><clipPath id="c92988a309"><path d="M 5.402344 23.980469 C 4.664062 24.941406 3.921875 24.277344 3.996094 24.054688 C 3.996094 23.832031 4.886719 23.386719 5.105469 23.535156 C 5.328125 23.609375 5.328125 24.644531 5.179688 24.71875 C 4.957031 24.867188 3.996094 24.5 3.921875 24.203125 C 3.773438 23.90625 4.070312 23.3125 4.292969 23.238281 C 4.515625 23.09375 5.328125 23.460938 5.328125 23.460938 " clip-rule="nonzero"/></clipPath><clipPath id="9cb7e3fe20"><path d="M 4.195312 24.058594 L 5.738281 24.058594 L 5.738281 25.488281 L 4.195312 25.488281 Z M 4.195312 24.058594 " clip-rule="nonzero"/></clipPath><clipPath id="d6cb0cf4c5"><path d="M 5.699219 24.5 C 5.253906 25.683594 4.367188 25.3125 4.367188 25.015625 C 4.292969 24.792969 5.03125 24.128906 5.253906 24.203125 C 5.476562 24.277344 5.847656 25.164062 5.699219 25.386719 C 5.550781 25.535156 4.515625 25.460938 4.292969 25.238281 C 4.144531 25.015625 4.21875 24.351562 4.367188 24.203125 C 4.589844 23.980469 5.402344 24.128906 5.402344 24.128906 " clip-rule="nonzero"/></clipPath><clipPath id="85f9b5ec00"><path d="M 4.429688 24.191406 L 5.949219 24.191406 L 5.949219 25.769531 L 4.429688 25.769531 Z M 4.429688 24.191406 " clip-rule="nonzero"/></clipPath><clipPath id="93b328e6f4"><path d="M 5.921875 25.015625 C 4.664062 25.609375 4.441406 24.644531 4.589844 24.5 C 4.738281 24.351562 5.699219 24.5 5.847656 24.71875 C 5.921875 24.867188 5.402344 25.683594 5.179688 25.757812 C 4.957031 25.757812 4.441406 25.238281 4.441406 25.015625 C 4.367188 24.792969 4.8125 24.277344 5.03125 24.203125 C 5.253906 24.203125 5.921875 24.941406 5.921875 24.941406 " clip-rule="nonzero"/></clipPath><clipPath id="eaf1813aaf"><path d="M 3.851562 25.316406 L 5.28125 25.316406 L 5.28125 26.546875 L 3.851562 26.546875 Z M 3.851562 25.316406 " clip-rule="nonzero"/></clipPath><clipPath id="11b1054874"><path d="M 5.253906 25.757812 C 4.664062 26.792969 4.070312 26.570312 3.921875 26.347656 C 3.773438 26.125 3.921875 25.535156 4.144531 25.386719 C 4.292969 25.238281 5.105469 25.460938 5.105469 25.460938 " clip-rule="nonzero"/></clipPath><clipPath id="5fd0d07566"><path d="M 3.617188 25.152344 L 5.191406 25.152344 L 5.191406 26.671875 L 3.617188 26.671875 Z M 3.617188 25.152344 " clip-rule="nonzero"/></clipPath><clipPath id="c1435854d1"><path d="M 4.367188 26.644531 C 3.773438 25.386719 4.738281 25.164062 4.886719 25.386719 C 5.105469 25.535156 4.886719 26.496094 4.738281 26.570312 C 4.515625 26.644531 3.699219 26.199219 3.625 25.90625 C 3.625 25.683594 4.144531 25.164062 4.367188 25.164062 C 4.664062 25.164062 5.105469 25.535156 5.179688 25.757812 C 5.179688 26.050781 4.441406 26.644531 4.441406 26.644531 " clip-rule="nonzero"/></clipPath><clipPath id="43d8caadfc"><path d="M 3.582031 25.019531 L 5.039062 25.019531 L 5.039062 26.222656 L 3.582031 26.222656 Z M 3.582031 25.019531 " clip-rule="nonzero"/></clipPath><clipPath id="469242f3f0"><path d="M 5.03125 25.460938 C 4.367188 26.421875 3.773438 26.273438 3.625 26.050781 C 3.550781 25.832031 3.625 25.238281 3.847656 25.089844 C 3.996094 24.941406 4.8125 25.164062 4.8125 25.164062 " clip-rule="nonzero"/></clipPath><clipPath id="451348bf15"><path d="M 3.46875 24.710938 L 4.984375 24.710938 L 4.984375 26.285156 L 3.46875 26.285156 Z M 3.46875 24.710938 " clip-rule="nonzero"/></clipPath><clipPath id="d929d259f8"><path d="M 3.480469 25.460938 C 4.664062 24.867188 4.886719 25.832031 4.738281 25.980469 C 4.589844 26.125 3.625 25.980469 3.550781 25.832031 C 3.40625 25.609375 3.921875 24.792969 4.144531 24.71875 C 4.367188 24.71875 4.886719 25.238281 4.957031 25.460938 C 4.957031 25.757812 4.589844 26.199219 4.292969 26.273438 C 4.070312 26.273438 3.480469 25.535156 3.480469 25.535156 " clip-rule="nonzero"/></clipPath><clipPath id="85e691c4a0"><path d="M 3.390625 24.589844 L 4.824219 24.589844 L 4.824219 26.078125 L 3.390625 26.078125 Z M 3.390625 24.589844 " clip-rule="nonzero"/></clipPath><clipPath id="d7bf3c1c8a"><path d="M 3.40625 25.609375 C 4.21875 24.5 4.886719 25.3125 4.8125 25.460938 C 4.738281 25.683594 3.847656 25.980469 3.625 25.90625 C 3.480469 25.757812 3.480469 24.792969 3.699219 24.644531 C 3.921875 24.5 4.664062 24.71875 4.738281 24.941406 C 4.886719 25.164062 4.664062 25.90625 4.441406 26.050781 C 4.21875 26.125 3.480469 25.757812 3.480469 25.757812 " clip-rule="nonzero"/></clipPath><clipPath id="ce6ad4fe49"><path d="M 3.257812 24.351562 L 4.6875 24.351562 L 4.6875 25.558594 L 3.257812 25.558594 Z M 3.257812 24.351562 " clip-rule="nonzero"/></clipPath><clipPath id="b295173e6d"><path d="M 4.664062 24.792969 C 4.070312 25.757812 3.480469 25.609375 3.332031 25.386719 C 3.183594 25.164062 3.332031 24.574219 3.480469 24.425781 C 3.699219 24.277344 4.515625 24.5 4.515625 24.5 " clip-rule="nonzero"/></clipPath><clipPath id="59a290c2e6"><path d="M 5.554688 25.316406 L 6.984375 25.316406 L 6.984375 26.519531 L 5.554688 26.519531 Z M 5.554688 25.316406 " clip-rule="nonzero"/></clipPath><clipPath id="dc6b663d10"><path d="M 6.957031 25.757812 C 6.292969 26.71875 5.773438 26.570312 5.625 26.347656 C 5.476562 26.125 5.625 25.535156 5.773438 25.386719 C 5.996094 25.238281 6.734375 25.460938 6.734375 25.460938 " clip-rule="nonzero"/></clipPath><clipPath id="9f69a7559a"><path d="M 3.40625 20.875 L 4.835938 20.875 L 4.835938 22.078125 L 3.40625 22.078125 Z M 3.40625 20.875 " clip-rule="nonzero"/></clipPath><clipPath id="4f07f147ca"><path d="M 4.8125 21.316406 C 4.21875 22.277344 3.625 22.128906 3.480469 21.90625 C 3.332031 21.6875 3.480469 21.09375 3.625 20.945312 C 3.847656 20.796875 4.664062 21.019531 4.664062 21.019531 " clip-rule="nonzero"/></clipPath><clipPath id="0ad28b7459"><path d="M 3.40625 20.355469 L 4.835938 20.355469 L 4.835938 21.5625 L 3.40625 21.5625 Z M 3.40625 20.355469 " clip-rule="nonzero"/></clipPath><clipPath id="d9db4ae9b6"><path d="M 4.8125 20.796875 C 4.21875 21.761719 3.625 21.613281 3.480469 21.390625 C 3.332031 21.167969 3.480469 20.574219 3.625 20.425781 C 3.847656 20.28125 4.664062 20.5 4.664062 20.5 " clip-rule="nonzero"/></clipPath><clipPath id="08b4f07e24"><path d="M 3.257812 19.171875 L 4.6875 19.171875 L 4.6875 20.433594 L 3.257812 20.433594 Z M 3.257812 19.171875 " clip-rule="nonzero"/></clipPath><clipPath id="bc2a43a0b7"><path d="M 4.664062 19.613281 C 4.070312 20.648438 3.480469 20.425781 3.332031 20.28125 C 3.183594 20.058594 3.332031 19.464844 3.480469 19.242188 C 3.699219 19.09375 4.515625 19.316406 4.515625 19.316406 " clip-rule="nonzero"/></clipPath><clipPath id="29e99604dd"><path d="M 3.304688 19.097656 L 4.761719 19.097656 L 4.761719 20.332031 L 3.304688 20.332031 Z M 3.304688 19.097656 " clip-rule="nonzero"/></clipPath><clipPath id="759616a3b1"><path d="M 4.738281 19.539062 C 4.070312 20.574219 3.480469 20.355469 3.40625 20.132812 C 3.257812 19.984375 3.332031 19.316406 3.550781 19.167969 C 3.773438 19.019531 4.515625 19.242188 4.515625 19.242188 " clip-rule="nonzero"/></clipPath><clipPath id="b247c5c2ae"><path d="M 3.527344 19.910156 L 4.984375 19.910156 L 4.984375 21.144531 L 3.527344 21.144531 Z M 3.527344 19.910156 " clip-rule="nonzero"/></clipPath><clipPath id="42fdc9df51"><path d="M 4.957031 20.355469 C 4.292969 21.390625 3.699219 21.167969 3.625 20.945312 C 3.480469 20.796875 3.550781 20.132812 3.773438 19.984375 C 3.996094 19.835938 4.738281 20.058594 4.738281 20.058594 " clip-rule="nonzero"/></clipPath><clipPath id="8142c0e47d"><path d="M 3.007812 20.058594 L 4.46875 20.058594 L 4.46875 21.292969 L 3.007812 21.292969 Z M 3.007812 20.058594 " clip-rule="nonzero"/></clipPath><clipPath id="130e1c3888"><path d="M 4.441406 20.5 C 3.773438 21.539062 3.183594 21.316406 3.109375 21.09375 C 2.960938 20.871094 3.035156 20.28125 3.257812 20.132812 C 3.480469 19.984375 4.21875 20.207031 4.21875 20.207031 " clip-rule="nonzero"/></clipPath><clipPath id="d703142669"><path d="M 2.472656 19.171875 L 3.875 19.171875 L 3.875 20.40625 L 2.472656 20.40625 Z M 2.472656 19.171875 " clip-rule="nonzero"/></clipPath><clipPath id="07707786e9"><path d="M 3.847656 19.613281 C 3.257812 20.648438 2.664062 20.425781 2.515625 20.207031 C 2.441406 20.058594 2.515625 19.390625 2.738281 19.242188 C 2.886719 19.09375 3.699219 19.316406 3.699219 19.316406 " clip-rule="nonzero"/></clipPath><clipPath id="e478698a34"><path d="M 2.027344 18.949219 L 3.429688 18.949219 L 3.429688 20.183594 L 2.027344 20.183594 Z M 2.027344 18.949219 " clip-rule="nonzero"/></clipPath><clipPath id="57651a8ee0"><path d="M 3.40625 19.390625 C 2.8125 20.425781 2.21875 20.207031 2.074219 19.984375 C 2 19.761719 2.074219 19.167969 2.292969 19.019531 C 2.441406 18.875 3.257812 19.09375 3.257812 19.09375 " clip-rule="nonzero"/></clipPath><clipPath id="61731063db"><path d="M 1.851562 18.949219 L 3.28125 18.949219 L 3.28125 20.15625 L 1.851562 20.15625 Z M 1.851562 18.949219 " clip-rule="nonzero"/></clipPath><clipPath id="535ff513bd"><path d="M 3.257812 19.390625 C 2.664062 20.355469 2.074219 20.207031 1.925781 19.984375 C 1.777344 19.761719 1.925781 19.167969 2.074219 19.019531 C 2.292969 18.875 3.109375 19.09375 3.109375 19.09375 " clip-rule="nonzero"/></clipPath><clipPath id="8a64d8efbf"><path d="M 2.710938 18.726562 L 4.171875 18.726562 L 4.171875 19.933594 L 2.710938 19.933594 Z M 2.710938 18.726562 " clip-rule="nonzero"/></clipPath><clipPath id="42f61a5c91"><path d="M 4.144531 19.167969 C 3.480469 20.132812 2.886719 19.984375 2.8125 19.761719 C 2.664062 19.539062 2.738281 18.949219 2.960938 18.800781 C 3.183594 18.652344 3.921875 18.800781 3.921875 18.800781 " clip-rule="nonzero"/></clipPath><clipPath id="bb60234f49"><path d="M 3.109375 18.429688 L 4.539062 18.429688 L 4.539062 19.609375 L 3.109375 19.609375 Z M 3.109375 18.429688 " clip-rule="nonzero"/></clipPath><clipPath id="32f23261a1"><path d="M 4.515625 18.800781 C 3.921875 19.835938 3.332031 19.613281 3.183594 19.464844 C 3.035156 19.242188 3.183594 18.652344 3.332031 18.503906 C 3.550781 18.355469 4.367188 18.503906 4.367188 18.503906 " clip-rule="nonzero"/></clipPath><clipPath id="bec367b814"><path d="M 1.972656 18.578125 L 3.429688 18.578125 L 3.429688 19.785156 L 1.972656 19.785156 Z M 1.972656 18.578125 " clip-rule="nonzero"/></clipPath><clipPath id="9ed03a783c"><path d="M 3.40625 19.019531 C 2.738281 19.984375 2.144531 19.835938 2.074219 19.613281 C 1.925781 19.390625 2 18.800781 2.21875 18.652344 C 2.441406 18.503906 3.183594 18.726562 3.183594 18.726562 " clip-rule="nonzero"/></clipPath><clipPath id="a44683ad06"><path d="M 1.824219 19.761719 L 3.28125 19.761719 L 3.28125 20.996094 L 1.824219 20.996094 Z M 1.824219 19.761719 " clip-rule="nonzero"/></clipPath><clipPath id="0df67288a9"><path d="M 3.257812 20.207031 C 2.589844 21.242188 2 21.019531 1.925781 20.796875 C 1.777344 20.574219 1.851562 19.984375 2.074219 19.835938 C 2.292969 19.6875 3.035156 19.910156 3.035156 19.910156 " clip-rule="nonzero"/></clipPath><clipPath id="ff9c46f6cb"><path d="M 3.15625 24.054688 L 4.613281 24.054688 L 4.613281 25.261719 L 3.15625 25.261719 Z M 3.15625 24.054688 " clip-rule="nonzero"/></clipPath><clipPath id="1a853eb777"><path d="M 4.589844 24.5 C 3.921875 25.460938 3.332031 25.3125 3.257812 25.089844 C 3.109375 24.867188 3.183594 24.277344 3.40625 24.128906 C 3.625 23.980469 4.367188 24.203125 4.367188 24.203125 " clip-rule="nonzero"/></clipPath></defs><g clip-path="url(#a822c17fd2)"><g clip-path="url(#627cc1c408)"><path stroke-linecap="butt" transform="matrix(0.740132, 0, 0, 0.740132, 1.295231, 1.44355)" fill="none" stroke-linejoin="miter" d="M 23.045001 0.0023815 C 10.320278 0.0023815 0.00222183 10.320438 0.00222183 23.045161 C 0.00222183 35.775162 10.320278 46.093218 23.045001 46.093218 C 35.775002 46.093218 46.093058 35.775162 46.093058 23.045161 C 46.093058 10.320438 35.775002 0.0023815 23.045001 0.0023815 Z M 23.045001 0.0023815 " stroke="#9ba1a4" stroke-width="2" stroke-opacity="1" stroke-miterlimit="4"/></g></g><g clip-path="url(#2c162ab5ac)"><g clip-path="url(#31211f615a)"><path stroke-linecap="butt" transform="matrix(0.740132, 0, 0, 0.740132, 4.148896, 4.140871)" fill="none" stroke-linejoin="miter" d="M 19.294937 -0.000331813 C 8.639103 -0.000331813 -0.000619813 8.639391 -0.000619813 19.295225 C -0.000619813 29.956337 8.639103 38.59606 19.294937 38.59606 C 29.956049 38.59606 38.595772 29.956337 38.595772 19.295225 C 38.595772 8.639391 29.956049 -0.000331813 19.294937 -0.000331813 Z M 19.294937 -0.000331813 " stroke="#9ba1a4" stroke-width="2" stroke-opacity="1" stroke-miterlimit="4"/></g></g><g clip-path="url(#94106746f1)"><path fill="#9ba1a4" d="M 22.964844 14.167969 C 22.964844 14.472656 22.933594 14.773438 22.875 15.070312 C 22.816406 15.367188 22.726562 15.652344 22.613281 15.933594 C 22.496094 16.214844 22.355469 16.480469 22.1875 16.730469 C 22.019531 16.984375 21.828125 17.214844 21.613281 17.429688 C 21.398438 17.644531 21.164062 17.835938 20.914062 18.003906 C 20.660156 18.171875 20.394531 18.3125 20.117188 18.429688 C 19.835938 18.546875 19.546875 18.632812 19.25 18.691406 C 18.953125 18.75 18.65625 18.78125 18.351562 18.78125 C 18.050781 18.78125 17.75 18.75 17.453125 18.691406 C 17.15625 18.632812 16.867188 18.546875 16.585938 18.429688 C 16.308594 18.3125 16.042969 18.171875 15.789062 18.003906 C 15.539062 17.835938 15.304688 17.644531 15.089844 17.429688 C 14.878906 17.214844 14.6875 16.984375 14.519531 16.730469 C 14.351562 16.480469 14.207031 16.214844 14.09375 15.933594 C 13.976562 15.652344 13.886719 15.367188 13.828125 15.070312 C 13.769531 14.773438 13.742188 14.472656 13.742188 14.167969 C 13.742188 13.867188 13.769531 13.566406 13.828125 13.269531 C 13.886719 12.972656 13.976562 12.683594 14.09375 12.40625 C 14.207031 12.125 14.351562 11.859375 14.519531 11.605469 C 14.6875 11.355469 14.878906 11.121094 15.089844 10.910156 C 15.304688 10.695312 15.539062 10.503906 15.789062 10.335938 C 16.042969 10.167969 16.308594 10.023438 16.585938 9.910156 C 16.867188 9.792969 17.15625 9.707031 17.453125 9.648438 C 17.75 9.585938 18.050781 9.558594 18.351562 9.558594 C 18.65625 9.558594 18.953125 9.585938 19.25 9.648438 C 19.546875 9.707031 19.835938 9.792969 20.117188 9.910156 C 20.394531 10.023438 20.660156 10.167969 20.914062 10.335938 C 21.164062 10.503906 21.398438 10.695312 21.613281 10.910156 C 21.828125 11.121094 22.019531 11.355469 22.1875 11.605469 C 22.355469 11.859375 22.496094 12.125 22.613281 12.40625 C 22.726562 12.683594 22.816406 12.972656 22.875 13.269531 C 22.933594 13.566406 22.964844 13.867188 22.964844 14.167969 Z M 22.964844 14.167969 " fill-opacity="1" fill-rule="nonzero"/></g><g clip-path="url(#f2e988f925)"><path fill="#9ba1a4" d="M 18.351562 19.097656 C 17.628906 19.097656 16.917969 19.195312 16.21875 19.382812 C 15.519531 19.570312 14.855469 19.847656 14.230469 20.214844 C 13.605469 20.578125 13.039062 21.019531 12.53125 21.53125 C 12.023438 22.046875 11.589844 22.621094 11.234375 23.25 C 11.117188 23.457031 11.03125 23.671875 10.972656 23.902344 C 10.910156 24.132812 10.882812 24.363281 10.886719 24.597656 C 10.886719 24.835938 10.917969 25.066406 10.980469 25.296875 C 11.042969 25.523438 11.136719 25.738281 11.253906 25.941406 C 11.375 26.148438 11.515625 26.332031 11.683594 26.5 C 11.851562 26.664062 12.039062 26.804688 12.242188 26.925781 C 12.449219 27.042969 12.664062 27.128906 12.894531 27.191406 C 13.121094 27.253906 13.351562 27.28125 13.589844 27.28125 L 23.117188 27.28125 C 23.351562 27.28125 23.585938 27.253906 23.8125 27.191406 C 24.042969 27.132812 24.257812 27.042969 24.460938 26.925781 C 24.667969 26.808594 24.855469 26.664062 25.019531 26.5 C 25.1875 26.332031 25.332031 26.148438 25.453125 25.941406 C 25.570312 25.738281 25.660156 25.523438 25.722656 25.296875 C 25.785156 25.066406 25.816406 24.835938 25.820312 24.597656 C 25.820312 24.363281 25.792969 24.128906 25.734375 23.902344 C 25.675781 23.671875 25.585938 23.457031 25.46875 23.25 C 25.113281 22.621094 24.679688 22.046875 24.171875 21.53125 C 23.664062 21.019531 23.097656 20.578125 22.472656 20.214844 C 21.847656 19.847656 21.183594 19.570312 20.484375 19.382812 C 19.789062 19.195312 19.074219 19.097656 18.351562 19.097656 Z M 18.351562 19.097656 " fill-opacity="1" fill-rule="nonzero"/></g><path stroke-linecap="butt" transform="matrix(0.0214411, 0.739821, -0.739821, 0.0214411, 18.723274, 1.434785)" fill="none" stroke-linejoin="miter" d="M -0.000330597 0.502424 L 3.648141 0.502563 " stroke="#9ba1a4" stroke-width="1" stroke-opacity="1" stroke-miterlimit="4"/><path stroke-linecap="butt" transform="matrix(0.739854, -0.0202673, 0.0202673, 0.739854, 1.285095, 18.133519)" fill="none" stroke-linejoin="miter" d="M 0.0022064 0.500683 L 3.85643 0.500669 " stroke="#9ba1a4" stroke-width="1" stroke-opacity="1" stroke-miterlimit="4"/><g clip-path="url(#ce77fcdd9d)"><path stroke-linecap="butt" transform="matrix(-0.739821, -0.0214411, 0.0214411, -0.739821, 35.400661, 18.873435)" fill="none" stroke-linejoin="miter" d="M 0.00164033 0.499437 L 3.644837 0.499451 " stroke="#9ba1a4" stroke-width="1" stroke-opacity="1" stroke-miterlimit="4"/></g><g clip-path="url(#2481b69bfd)"><path stroke-linecap="butt" transform="matrix(-0.0202673, 0.739854, -0.739854, -0.0202673, 18.798299, 32.725006)" fill="none" stroke-linejoin="miter" d="M -0.0000869737 0.498224 L 3.859412 0.498093 " stroke="#9ba1a4" stroke-width="1" stroke-opacity="1" stroke-miterlimit="4"/></g><path stroke-linecap="butt" transform="matrix(0.523352, -0.523352, 0.523352, 0.523352, 28.271708, 8.061239)" fill="none" stroke-linejoin="miter" d="M 0.000447608 0.50294 L 3.601782 0.499208 " stroke="#9ba1a4" stroke-width="1" stroke-opacity="1" stroke-miterlimit="4"/><path stroke-linecap="butt" transform="matrix(0.523352, -0.523352, 0.523352, 0.523352, 6.363427, 29.65443)" fill="none" stroke-linejoin="miter" d="M -0.00187765 0.501681 L 3.312096 0.501681 " stroke="#9ba1a4" stroke-width="1" stroke-opacity="1" stroke-miterlimit="4"/><path stroke-linecap="butt" transform="matrix(0.542728, 0.50323, -0.50323, 0.542728, 7.116579, 6.594369)" fill="none" stroke-linejoin="miter" d="M -0.000330396 0.502987 L 2.796995 0.500316 " stroke="#9ba1a4" stroke-width="1" stroke-opacity="1" stroke-miterlimit="4"/><path stroke-linecap="butt" transform="matrix(0.542728, 0.50323, -0.50323, 0.542728, 28.899433, 27.969368)" fill="none" stroke-linejoin="miter" d="M 0.00195045 0.500873 L 2.799276 0.498202 " stroke="#9ba1a4" stroke-width="1" stroke-opacity="1" stroke-miterlimit="4"/><g clip-path="url(#9134d8e0b9)"><g clip-path="url(#8fece8cab9)"><path fill="#9ba1a4" d="M 5.402344 2.738281 L 13.402344 2.738281 L 13.402344 10.582031 L 5.402344 10.582031 Z M 5.402344 2.738281 " fill-opacity="1" fill-rule="nonzero"/></g></g><g clip-path="url(#1828c464b7)"><g clip-path="url(#299f4bc0cf)"><path fill="#9ba1a4" d="M 6.957031 1.925781 L 14.957031 1.925781 L 14.957031 9.769531 L 6.957031 9.769531 Z M 6.957031 1.925781 " fill-opacity="1" fill-rule="nonzero"/></g></g><g clip-path="url(#8d35506a49)"><g clip-path="url(#44731295f5)"><path fill="#9ba1a4" d="M 11.324219 0.296875 L 19.324219 0.296875 L 19.324219 8.140625 L 11.324219 8.140625 Z M 11.324219 0.296875 " fill-opacity="1" fill-rule="nonzero"/></g></g><g clip-path="url(#a99e024846)"><g clip-path="url(#f6a74e5cdf)"><path fill="#9ba1a4" d="M 13.324219 -0.296875 L 21.539062 -0.296875 L 21.539062 7.917969 L 13.324219 7.917969 Z M 13.324219 -0.296875 " fill-opacity="1" fill-rule="nonzero"/></g></g><g clip-path="url(#409263b7c1)"><g clip-path="url(#aaae3e1b06)"><path fill="#9ba1a4" d="M 13.324219 -0.667969 L 21.320312 -0.667969 L 21.320312 7.179688 L 13.324219 7.179688 Z M 13.324219 -0.667969 " fill-opacity="1" fill-rule="nonzero"/></g></g><g clip-path="url(#48eb76343e)"><g clip-path="url(#dcbd044e83)"><path fill="#9ba1a4" d="M 12.0625 -0.519531 L 20.0625 -0.519531 L 20.0625 7.328125 L 12.0625 7.328125 Z M 12.0625 -0.519531 " fill-opacity="1" fill-rule="nonzero"/></g></g><g clip-path="url(#67bfff551d)"><g clip-path="url(#f5f4c0d36b)"><path fill="#9ba1a4" d="M 4.957031 -0.59375 L 19.464844 -0.59375 L 19.464844 10.363281 L 4.957031 10.363281 Z M 4.957031 -0.59375 " fill-opacity="1" fill-rule="nonzero"/></g></g><g clip-path="url(#95482da051)"><g clip-path="url(#e7817d35a9)"><path fill="#9ba1a4" d="M 13.542969 -0.8125 L 21.542969 -0.8125 L 21.542969 7.03125 L 13.542969 7.03125 Z M 13.542969 -0.8125 " fill-opacity="1" fill-rule="nonzero"/></g></g><g clip-path="url(#e0bea6fa9d)"><g clip-path="url(#f34634d81d)"><path fill="#9ba1a4" d="M 12.507812 -0.667969 L 20.507812 -0.667969 L 20.507812 7.179688 L 12.507812 7.179688 Z M 12.507812 -0.667969 " fill-opacity="1" fill-rule="nonzero"/></g></g><g clip-path="url(#b235940846)"><g clip-path="url(#be0a01cb19)"><path fill="#9ba1a4" d="M 12.136719 -0.0742188 L 20.136719 -0.0742188 L 20.136719 7.769531 L 12.136719 7.769531 Z M 12.136719 -0.0742188 " fill-opacity="1" fill-rule="nonzero"/></g></g><g clip-path="url(#dc4ef3a704)"><g clip-path="url(#d9b09aa96a)"><path fill="#9ba1a4" d="M 5.847656 2.144531 L 13.84375 2.144531 L 13.84375 9.992188 L 5.847656 9.992188 Z M 5.847656 2.144531 " fill-opacity="1" fill-rule="nonzero"/></g></g><g clip-path="url(#84b8d3ce31)"><g clip-path="url(#7e22cc8b5c)"><path fill="#9ba1a4" d="M 5.699219 2.886719 L 13.699219 2.886719 L 13.699219 10.730469 L 5.699219 10.730469 Z M 5.699219 2.886719 " fill-opacity="1" fill-rule="nonzero"/></g></g><g clip-path="url(#2ebf15a9b2)"><g clip-path="url(#d9fa74d357)"><path fill="#9ba1a4" d="M 4.664062 3.332031 L 12.660156 3.332031 L 12.660156 11.175781 L 4.664062 11.175781 Z M 4.664062 3.332031 " fill-opacity="1" fill-rule="nonzero"/></g></g><g clip-path="url(#5bc4f1e570)"><g clip-path="url(#8446f79cfa)"><path fill="#9ba1a4" d="M 4.292969 3.035156 L 12.292969 3.035156 L 12.292969 10.878906 L 4.292969 10.878906 Z M 4.292969 3.035156 " fill-opacity="1" fill-rule="nonzero"/></g></g><g clip-path="url(#b1bacfaa22)"><g clip-path="url(#cfa0427d97)"><path fill="#9ba1a4" d="M 4.8125 3.257812 L 12.808594 3.257812 L 12.808594 11.101562 L 4.8125 11.101562 Z M 4.8125 3.257812 " fill-opacity="1" fill-rule="nonzero"/></g></g><g clip-path="url(#5aa263fb42)"><g clip-path="url(#3dda1da151)"><path fill="#9ba1a4" d="M 4.664062 3.332031 L 12.878906 3.332031 L 12.878906 11.546875 L 4.664062 11.546875 Z M 4.664062 3.332031 " fill-opacity="1" fill-rule="nonzero"/></g></g><g clip-path="url(#f5d2f7e337)"><g clip-path="url(#c35437185d)"><path fill="#9ba1a4" d="M 26.867188 5.179688 L 34.867188 5.179688 L 34.867188 13.027344 L 26.867188 13.027344 Z M 26.867188 5.179688 " fill-opacity="1" fill-rule="nonzero"/></g></g><g clip-path="url(#da7b2c7250)"><g clip-path="url(#07ea48ecf6)"><path fill="#9ba1a4" d="M 27.3125 5.921875 L 37.523438 5.921875 L 37.523438 20.960938 L 27.3125 20.960938 Z M 27.3125 5.921875 " fill-opacity="1" fill-rule="nonzero"/></g></g><g clip-path="url(#7ce97d0dd4)"><g clip-path="url(#28b755fde7)"><path fill="#9ba1a4" d="M 27.457031 7.03125 L 35.457031 7.03125 L 35.457031 14.875 L 27.457031 14.875 Z M 27.457031 7.03125 " fill-opacity="1" fill-rule="nonzero"/></g></g><g clip-path="url(#862aa39035)"><g clip-path="url(#cfba019315)"><path fill="#9ba1a4" d="M 26.71875 4.738281 L 34.71875 4.738281 L 34.71875 12.582031 L 26.71875 12.582031 Z M 26.71875 4.738281 " fill-opacity="1" fill-rule="nonzero"/></g></g><g clip-path="url(#911a147505)"><g clip-path="url(#36ab48efa9)"><path fill="#9ba1a4" d="M 26.941406 5.550781 L 34.9375 5.550781 L 34.9375 13.394531 L 26.941406 13.394531 Z M 26.941406 5.550781 " fill-opacity="1" fill-rule="nonzero"/></g></g><g clip-path="url(#bf0f3161be)"><g clip-path="url(#16afbb01e9)"><path fill="#9ba1a4" d="M 26.421875 5.773438 L 34.421875 5.773438 L 34.421875 13.617188 L 26.421875 13.617188 Z M 26.421875 5.773438 " fill-opacity="1" fill-rule="nonzero"/></g></g><g clip-path="url(#684b23dfae)"><g clip-path="url(#e42a8cebef)"><path fill="#9ba1a4" d="M 27.386719 6.511719 L 35.382812 6.511719 L 35.382812 14.359375 L 27.386719 14.359375 Z M 27.386719 6.511719 " fill-opacity="1" fill-rule="nonzero"/></g></g><g clip-path="url(#e01eff80a8)"><g clip-path="url(#385ef0af64)"><path fill="#9ba1a4" d="M 26.496094 4.8125 L 34.496094 4.8125 L 34.496094 12.65625 L 26.496094 12.65625 Z M 26.496094 4.8125 " fill-opacity="1" fill-rule="nonzero"/></g></g><g clip-path="url(#6546dea0a8)"><g clip-path="url(#754a06aa1f)"><path fill="#9ba1a4" d="M 26.050781 4.738281 L 34.050781 4.738281 L 34.050781 12.582031 L 26.050781 12.582031 Z M 26.050781 4.738281 " fill-opacity="1" fill-rule="nonzero"/></g></g><g clip-path="url(#ebd2384024)"><g clip-path="url(#03aa0016f1)"><path fill="#9ba1a4" d="M 25.90625 5.253906 L 33.902344 5.253906 L 33.902344 13.101562 L 25.90625 13.101562 Z M 25.90625 5.253906 " fill-opacity="1" fill-rule="nonzero"/></g></g><g clip-path="url(#d4e4210c8d)"><g clip-path="url(#97a01f001b)"><path fill="#9ba1a4" d="M 25.90625 4.367188 L 33.902344 4.367188 L 33.902344 12.210938 L 25.90625 12.210938 Z M 25.90625 4.367188 " fill-opacity="1" fill-rule="nonzero"/></g></g><g clip-path="url(#2d00e9a8f1)"><g clip-path="url(#252bf70cca)"><path fill="#9ba1a4" d="M 25.757812 4.8125 L 33.753906 4.8125 L 33.753906 12.65625 L 25.757812 12.65625 Z M 25.757812 4.8125 " fill-opacity="1" fill-rule="nonzero"/></g></g><g clip-path="url(#7c90132536)"><g clip-path="url(#1c52bd1b75)"><path fill="#9ba1a4" d="M 29.902344 13.617188 L 37.898438 13.617188 L 37.898438 21.464844 L 29.902344 21.464844 Z M 29.902344 13.617188 " fill-opacity="1" fill-rule="nonzero"/></g></g><g clip-path="url(#0e4e83b7ec)"><g clip-path="url(#1b35d0e31c)"><path fill="#9ba1a4" d="M 30.34375 13.839844 L 38.34375 13.839844 L 38.34375 21.6875 L 30.34375 21.6875 Z M 30.34375 13.839844 " fill-opacity="1" fill-rule="nonzero"/></g></g><g clip-path="url(#9a09e49d33)"><g clip-path="url(#c12e0fe0aa)"><path fill="#9ba1a4" d="M 26.125 4.292969 L 34.125 4.292969 L 34.125 12.136719 L 26.125 12.136719 Z M 26.125 4.292969 " fill-opacity="1" fill-rule="nonzero"/></g></g><g clip-path="url(#89a8d14141)"><g clip-path="url(#44e847cb06)"><path fill="#9ba1a4" d="M 25.683594 4.738281 L 33.679688 4.738281 L 33.679688 12.582031 L 25.683594 12.582031 Z M 25.683594 4.738281 " fill-opacity="1" fill-rule="nonzero"/></g></g><g clip-path="url(#5c3393435a)"><g clip-path="url(#0f88122a9f)"><path fill="#9ba1a4" d="M 25.832031 5.253906 L 33.828125 5.253906 L 33.828125 13.101562 L 25.832031 13.101562 Z M 25.832031 5.253906 " fill-opacity="1" fill-rule="nonzero"/></g></g><g clip-path="url(#799259673b)"><g clip-path="url(#913704ab2e)"><path fill="#9ba1a4" d="M 29.160156 13.324219 L 37.160156 13.324219 L 37.160156 21.167969 L 29.160156 21.167969 Z M 29.160156 13.324219 " fill-opacity="1" fill-rule="nonzero"/></g></g><g clip-path="url(#b402535b24)"><g clip-path="url(#322ce9ef47)"><path fill="#9ba1a4" d="M 29.382812 14.0625 L 37.382812 14.0625 L 37.382812 21.90625 L 29.382812 21.90625 Z M 29.382812 14.0625 " fill-opacity="1" fill-rule="nonzero"/></g></g><g clip-path="url(#2a7614db1f)"><g clip-path="url(#5d2c06c221)"><path fill="#9ba1a4" d="M 24.5 26.347656 L 32.496094 26.347656 L 32.496094 34.195312 L 24.5 34.195312 Z M 24.5 26.347656 " fill-opacity="1" fill-rule="nonzero"/></g></g><g clip-path="url(#7a2130e6df)"><g clip-path="url(#3c95683932)"><path fill="#9ba1a4" d="M 17.394531 27.53125 L 31.820312 27.53125 L 31.820312 36.859375 L 17.394531 36.859375 Z M 17.394531 27.53125 " fill-opacity="1" fill-rule="nonzero"/></g></g><g clip-path="url(#93454bbf8f)"><g clip-path="url(#77baf663e2)"><path fill="#9ba1a4" d="M 16.136719 26.644531 L 30.804688 26.644531 L 30.804688 37.820312 L 16.136719 37.820312 Z M 16.136719 26.644531 " fill-opacity="1" fill-rule="nonzero"/></g></g><g clip-path="url(#fa4977f845)"><g clip-path="url(#ebfd21d1e3)"><path fill="#9ba1a4" d="M 17.097656 30.125 L 23.761719 30.125 L 23.761719 36.5625 L 17.097656 36.5625 Z M 17.097656 30.125 " fill-opacity="1" fill-rule="nonzero"/></g></g><g clip-path="url(#ef70d5fb0e)"><g clip-path="url(#c387109ee3)"><path fill="#9ba1a4" d="M 16.429688 29.753906 L 28.558594 29.753906 L 28.558594 37.671875 L 16.429688 37.671875 Z M 16.429688 29.753906 " fill-opacity="1" fill-rule="nonzero"/></g></g><g clip-path="url(#db25257c90)"><g clip-path="url(#884db46a05)"><path fill="#9ba1a4" d="M 17.542969 30.9375 L 24.207031 30.9375 L 24.207031 37.375 L 17.542969 37.375 Z M 17.542969 30.9375 " fill-opacity="1" fill-rule="nonzero"/></g></g><g clip-path="url(#f08d85a239)"><g clip-path="url(#778de56c1b)"><path fill="#9ba1a4" d="M 16.578125 29.828125 L 24.578125 29.828125 L 24.578125 37.671875 L 16.578125 37.671875 Z M 16.578125 29.828125 " fill-opacity="1" fill-rule="nonzero"/></g></g><g clip-path="url(#ab218e8ba3)"><g clip-path="url(#2ca6dfa0dd)"><path fill="#9ba1a4" d="M 18.800781 30.199219 L 26.796875 30.199219 L 26.796875 38.042969 L 18.800781 38.042969 Z M 18.800781 30.199219 " fill-opacity="1" fill-rule="nonzero"/></g></g><g clip-path="url(#8f9abc553f)"><g clip-path="url(#519459ad6a)"><path fill="#9ba1a4" d="M 19.835938 29.382812 L 27.835938 29.382812 L 27.835938 37.230469 L 19.835938 37.230469 Z M 19.835938 29.382812 " fill-opacity="1" fill-rule="nonzero"/></g></g><g clip-path="url(#f0ff40209d)"><g clip-path="url(#4c6a696f0b)"><path fill="#9ba1a4" d="M 17.320312 29.976562 L 25.316406 29.976562 L 25.316406 37.820312 L 17.320312 37.820312 Z M 17.320312 29.976562 " fill-opacity="1" fill-rule="nonzero"/></g></g><g clip-path="url(#209e56e0e1)"><g clip-path="url(#27938217c1)"><path fill="#9ba1a4" d="M 18.207031 30.125 L 26.207031 30.125 L 26.207031 37.96875 L 18.207031 37.96875 Z M 18.207031 30.125 " fill-opacity="1" fill-rule="nonzero"/></g></g><g clip-path="url(#6231b786a1)"><g clip-path="url(#cd0d244d4e)"><path fill="#9ba1a4" d="M 17.761719 30.125 L 25.761719 30.125 L 25.761719 37.96875 L 17.761719 37.96875 Z M 17.761719 30.125 " fill-opacity="1" fill-rule="nonzero"/></g></g><g clip-path="url(#748a6426a4)"><g clip-path="url(#f6e104e814)"><path fill="#9ba1a4" d="M 16.800781 30.125 L 24.800781 30.125 L 24.800781 37.96875 L 16.800781 37.96875 Z M 16.800781 30.125 " fill-opacity="1" fill-rule="nonzero"/></g></g><g clip-path="url(#9bafa0d531)"><g clip-path="url(#f57a8873f7)"><path fill="#9ba1a4" d="M 16.355469 30.199219 L 24.355469 30.199219 L 24.355469 38.042969 L 16.355469 38.042969 Z M 16.355469 30.199219 " fill-opacity="1" fill-rule="nonzero"/></g></g><g clip-path="url(#62a9db1583)"><g clip-path="url(#95c4ff4466)"><path fill="#9ba1a4" d="M 15.765625 30.050781 L 23.761719 30.050781 L 23.761719 37.894531 L 15.765625 37.894531 Z M 15.765625 30.050781 " fill-opacity="1" fill-rule="nonzero"/></g></g><g clip-path="url(#1e9b3758b9)"><g clip-path="url(#571d7a501f)"><path fill="#9ba1a4" d="M 15.246094 30.34375 L 23.246094 30.34375 L 23.246094 38.191406 L 15.246094 38.191406 Z M 15.246094 30.34375 " fill-opacity="1" fill-rule="nonzero"/></g></g><g clip-path="url(#5ccb129a37)"><g clip-path="url(#1f3eb96b56)"><path fill="#9ba1a4" d="M 15.394531 29.753906 L 23.394531 29.753906 L 23.394531 37.597656 L 15.394531 37.597656 Z M 15.394531 29.753906 " fill-opacity="1" fill-rule="nonzero"/></g></g><g clip-path="url(#6495fa2fce)"><g clip-path="url(#16ed9462f4)"><path fill="#9ba1a4" d="M 15.617188 29.53125 L 23.617188 29.53125 L 23.617188 37.375 L 15.617188 37.375 Z M 15.617188 29.53125 " fill-opacity="1" fill-rule="nonzero"/></g></g><g clip-path="url(#ea396fc4e7)"><g clip-path="url(#05f8dd9d64)"><path fill="#9ba1a4" d="M 24.5 26.644531 L 32.496094 26.644531 L 32.496094 34.488281 L 24.5 34.488281 Z M 24.5 26.644531 " fill-opacity="1" fill-rule="nonzero"/></g></g><g clip-path="url(#78d0206b56)"><g clip-path="url(#7e277ce9fe)"><path fill="#9ba1a4" d="M 24.644531 26.347656 L 32.925781 26.347656 L 32.925781 34.5625 L 24.644531 34.5625 Z M 24.644531 26.347656 " fill-opacity="1" fill-rule="nonzero"/></g></g><g clip-path="url(#b3746c7aa0)"><g clip-path="url(#8f47609a41)"><path fill="#9ba1a4" d="M 24.867188 25.980469 L 32.867188 25.980469 L 32.867188 33.824219 L 24.867188 33.824219 Z M 24.867188 25.980469 " fill-opacity="1" fill-rule="nonzero"/></g></g><g clip-path="url(#65b8ba12ef)"><g clip-path="url(#e358c8ce8b)"><path fill="#9ba1a4" d="M 22.796875 26.792969 L 30.792969 26.792969 L 30.792969 34.636719 L 22.796875 34.636719 Z M 22.796875 26.792969 " fill-opacity="1" fill-rule="nonzero"/></g></g><g clip-path="url(#07f98b145d)"><g clip-path="url(#51fedd8a40)"><path fill="#9ba1a4" d="M 24.128906 27.015625 L 32.125 27.015625 L 32.125 34.859375 L 24.128906 34.859375 Z M 24.128906 27.015625 " fill-opacity="1" fill-rule="nonzero"/></g></g><g clip-path="url(#91eb7bd4fc)"><g clip-path="url(#29f155929a)"><path fill="#9ba1a4" d="M 21.6875 28.644531 L 29.683594 28.644531 L 29.683594 36.488281 L 21.6875 36.488281 Z M 21.6875 28.644531 " fill-opacity="1" fill-rule="nonzero"/></g></g><g clip-path="url(#e499d77876)"><g clip-path="url(#d257cdf699)"><path fill="#9ba1a4" d="M 20.355469 29.160156 L 28.351562 29.160156 L 28.351562 37.007812 L 20.355469 37.007812 Z M 20.355469 29.160156 " fill-opacity="1" fill-rule="nonzero"/></g></g><g clip-path="url(#b91b24d356)"><g clip-path="url(#f777f4b091)"><path fill="#9ba1a4" d="M 19.539062 29.308594 L 27.539062 29.308594 L 27.539062 37.15625 L 19.539062 37.15625 Z M 19.539062 29.308594 " fill-opacity="1" fill-rule="nonzero"/></g></g><g clip-path="url(#3f8a140f35)"><g clip-path="url(#8c2c79105f)"><path fill="#9ba1a4" d="M 23.019531 28.125 L 31.015625 28.125 L 31.015625 35.96875 L 23.019531 35.96875 Z M 23.019531 28.125 " fill-opacity="1" fill-rule="nonzero"/></g></g><g clip-path="url(#d9a1dd2ded)"><g clip-path="url(#f322e3e4a4)"><path fill="#9ba1a4" d="M 24.792969 25.90625 L 32.792969 25.90625 L 32.792969 33.75 L 24.792969 33.75 Z M 24.792969 25.90625 " fill-opacity="1" fill-rule="nonzero"/></g></g><g clip-path="url(#e2023a04a3)"><g clip-path="url(#9472fcb5b3)"><path fill="#9ba1a4" d="M 24.71875 25.460938 L 32.71875 25.460938 L 32.71875 33.304688 L 24.71875 33.304688 Z M 24.71875 25.460938 " fill-opacity="1" fill-rule="nonzero"/></g></g><g clip-path="url(#cb17e680b2)"><g clip-path="url(#6ca2d8330f)"><path fill="#9ba1a4" d="M 25.386719 26.125 L 33.386719 26.125 L 33.386719 33.972656 L 25.386719 33.972656 Z M 25.386719 26.125 " fill-opacity="1" fill-rule="nonzero"/></g></g><g clip-path="url(#746e56b169)"><g clip-path="url(#c3f4977242)"><path fill="#9ba1a4" d="M 24.128906 26.273438 L 32.125 26.273438 L 32.125 34.121094 L 24.128906 34.121094 Z M 24.128906 26.273438 " fill-opacity="1" fill-rule="nonzero"/></g></g><g clip-path="url(#0c486f8cf3)"><g clip-path="url(#0e08bbb164)"><path fill="#9ba1a4" d="M 0.8125 22.722656 L 10.214844 22.722656 L 10.214844 32.488281 L 0.8125 32.488281 Z M 0.8125 22.722656 " fill-opacity="1" fill-rule="nonzero"/></g></g><g clip-path="url(#f56a46f381)"><g clip-path="url(#a16295f9ec)"><path fill="#9ba1a4" d="M 3.035156 24.128906 L 11.03125 24.128906 L 11.03125 31.972656 L 3.035156 31.972656 Z M 3.035156 24.128906 " fill-opacity="1" fill-rule="nonzero"/></g></g><g clip-path="url(#4b468ba673)"><g clip-path="url(#36ad43937d)"><path fill="#9ba1a4" d="M -0.960938 16.949219 L 8.808594 16.949219 L 8.808594 29.542969 L -0.960938 29.542969 Z M -0.960938 16.949219 " fill-opacity="1" fill-rule="nonzero"/></g></g><g clip-path="url(#34357a28c4)"><g clip-path="url(#a32f906048)"><path fill="#9ba1a4" d="M 0.8125 21.761719 L 8.289062 21.761719 L 8.289062 29.234375 L 0.8125 29.234375 Z M 0.8125 21.761719 " fill-opacity="1" fill-rule="nonzero"/></g></g><g clip-path="url(#0438314a90)"><g clip-path="url(#de4da953ab)"><path fill="#9ba1a4" d="M 1.40625 21.167969 L 8.726562 21.167969 L 8.726562 28.347656 L 1.40625 28.347656 Z M 1.40625 21.167969 " fill-opacity="1" fill-rule="nonzero"/></g></g><g clip-path="url(#7db72e9cc8)"><g clip-path="url(#18db1fc070)"><path fill="#9ba1a4" d="M 0.960938 19.6875 L 8.28125 19.6875 L 8.28125 26.867188 L 0.960938 26.867188 Z M 0.960938 19.6875 " fill-opacity="1" fill-rule="nonzero"/></g></g><g clip-path="url(#3779c56482)"><g clip-path="url(#c1d31a29a9)"><path fill="#9ba1a4" d="M 0.667969 18.800781 L 7.984375 18.800781 L 7.984375 25.980469 L 0.667969 25.980469 Z M 0.667969 18.800781 " fill-opacity="1" fill-rule="nonzero"/></g></g><g clip-path="url(#b3af3837a6)"><g clip-path="url(#b7217f825b)"><path fill="#9ba1a4" d="M 0.0742188 16.503906 L 7.394531 16.503906 L 7.394531 23.683594 L 0.0742188 23.683594 Z M 0.0742188 16.503906 " fill-opacity="1" fill-rule="nonzero"/></g></g><g clip-path="url(#3946227221)"><g clip-path="url(#60caf88bb0)"><path fill="#9ba1a4" d="M 3.847656 24.277344 L 11.167969 24.277344 L 11.167969 31.457031 L 3.847656 31.457031 Z M 3.847656 24.277344 " fill-opacity="1" fill-rule="nonzero"/></g></g><g clip-path="url(#d311424da3)"><g clip-path="url(#13fb86c984)"><path fill="#9ba1a4" d="M 3.40625 24.792969 L 11.027344 24.792969 L 11.027344 32.269531 L 3.40625 32.269531 Z M 3.40625 24.792969 " fill-opacity="1" fill-rule="nonzero"/></g></g><g clip-path="url(#3f0f5ba321)"><g clip-path="url(#52a48c320e)"><path fill="#9ba1a4" d="M 2.886719 23.90625 L 10.214844 23.90625 L 10.214844 31.375 L 2.886719 31.375 Z M 2.886719 23.90625 " fill-opacity="1" fill-rule="nonzero"/></g></g><g clip-path="url(#954f319a83)"><g clip-path="url(#a74a98ccb3)"><path fill="#9ba1a4" d="M 2.074219 22.648438 L 9.917969 22.648438 L 9.917969 30.859375 L 2.074219 30.859375 Z M 2.074219 22.648438 " fill-opacity="1" fill-rule="nonzero"/></g></g><g clip-path="url(#725fdff844)"><g clip-path="url(#5e9303a91f)"><path fill="#9ba1a4" d="M 1.628906 21.6875 L 9.175781 21.6875 L 9.175781 29.382812 L 1.628906 29.382812 Z M 1.628906 21.6875 " fill-opacity="1" fill-rule="nonzero"/></g></g><g clip-path="url(#6431426781)"><g clip-path="url(#6e8379789a)"><path fill="#9ba1a4" d="M 1.109375 20.574219 L 8.957031 20.574219 L 8.957031 28.789062 L 1.109375 28.789062 Z M 1.109375 20.574219 " fill-opacity="1" fill-rule="nonzero"/></g></g><g clip-path="url(#577ff079ee)"><g clip-path="url(#665976cd1f)"><path fill="#9ba1a4" d="M 0.0742188 19.390625 L 7.414062 19.390625 L 7.414062 26.644531 L 0.0742188 26.644531 Z M 0.0742188 19.390625 " fill-opacity="1" fill-rule="nonzero"/></g></g><g clip-path="url(#8e144103a2)"><g clip-path="url(#e729318187)"><path fill="#9ba1a4" d="M -0.222656 18.652344 L 7.253906 18.652344 L 7.253906 26.214844 L -0.222656 26.214844 Z M -0.222656 18.652344 " fill-opacity="1" fill-rule="nonzero"/></g></g><g clip-path="url(#9cf96f1a9a)"><g clip-path="url(#abc68ec262)"><path fill="#9ba1a4" d="M -0.519531 17.761719 L 6.957031 17.761719 L 6.957031 25.324219 L -0.519531 25.324219 Z M -0.519531 17.761719 " fill-opacity="1" fill-rule="nonzero"/></g></g><g clip-path="url(#a7d13557bd)"><g clip-path="url(#58fcb642e7)"><path fill="#9ba1a4" d="M -0.445312 17.097656 L 7.03125 17.097656 L 7.03125 24.71875 L -0.445312 24.71875 Z M -0.445312 17.097656 " fill-opacity="1" fill-rule="nonzero"/></g></g><g clip-path="url(#81f9efb6f3)"><g clip-path="url(#16d1b27f0f)"><path fill="#9ba1a4" d="M 0.667969 18.949219 L 8.363281 18.949219 L 8.363281 27.097656 L 0.667969 27.097656 Z M 0.667969 18.949219 " fill-opacity="1" fill-rule="nonzero"/></g></g><g clip-path="url(#c9913b8c49)"><g clip-path="url(#c92988a309)"><path fill="#9ba1a4" d="M 0.960938 20.28125 L 8.4375 20.28125 L 8.4375 27.902344 L 0.960938 27.902344 Z M 0.960938 20.28125 " fill-opacity="1" fill-rule="nonzero"/></g></g><g clip-path="url(#9cb7e3fe20)"><g clip-path="url(#d6cb0cf4c5)"><path fill="#9ba1a4" d="M 1.332031 21.167969 L 8.660156 21.167969 L 8.660156 28.582031 L 1.332031 28.582031 Z M 1.332031 21.167969 " fill-opacity="1" fill-rule="nonzero"/></g></g><g clip-path="url(#85f9b5ec00)"><g clip-path="url(#93b328e6f4)"><path fill="#9ba1a4" d="M 1.480469 21.242188 L 8.957031 21.242188 L 8.957031 28.71875 L 1.480469 28.71875 Z M 1.480469 21.242188 " fill-opacity="1" fill-rule="nonzero"/></g></g><g clip-path="url(#eaf1813aaf)"><g clip-path="url(#11b1054874)"><path fill="#9ba1a4" d="M 0.960938 22.425781 L 8.28125 22.425781 L 8.28125 29.605469 L 0.960938 29.605469 Z M 0.960938 22.425781 " fill-opacity="1" fill-rule="nonzero"/></g></g><g clip-path="url(#5fd0d07566)"><g clip-path="url(#c1435854d1)"><path fill="#9ba1a4" d="M 0.667969 22.203125 L 8.140625 22.203125 L 8.140625 29.679688 L 0.667969 29.679688 Z M 0.667969 22.203125 " fill-opacity="1" fill-rule="nonzero"/></g></g><g clip-path="url(#43d8caadfc)"><g clip-path="url(#469242f3f0)"><path fill="#9ba1a4" d="M 0.667969 22.128906 L 7.984375 22.128906 L 7.984375 29.308594 L 0.667969 29.308594 Z M 0.667969 22.128906 " fill-opacity="1" fill-rule="nonzero"/></g></g><g clip-path="url(#451348bf15)"><g clip-path="url(#d929d259f8)"><path fill="#9ba1a4" d="M 0.519531 21.761719 L 7.992188 21.761719 L 7.992188 29.234375 L 0.519531 29.234375 Z M 0.519531 21.761719 " fill-opacity="1" fill-rule="nonzero"/></g></g><g clip-path="url(#85e691c4a0)"><g clip-path="url(#d7bf3c1c8a)"><path fill="#9ba1a4" d="M 0.445312 21.613281 L 7.769531 21.613281 L 7.769531 29.082031 L 0.445312 29.082031 Z M 0.445312 21.613281 " fill-opacity="1" fill-rule="nonzero"/></g></g><g clip-path="url(#ce6ad4fe49)"><g clip-path="url(#b295173e6d)"><path fill="#9ba1a4" d="M 0.371094 21.464844 L 7.691406 21.464844 L 7.691406 28.644531 L 0.371094 28.644531 Z M 0.371094 21.464844 " fill-opacity="1" fill-rule="nonzero"/><path fill="#9ba1a4" d="M 0.371094 21.464844 L 7.691406 21.464844 L 7.691406 28.644531 L 0.371094 28.644531 Z M 0.371094 21.464844 " fill-opacity="1" fill-rule="nonzero"/></g></g><g clip-path="url(#59a290c2e6)"><g clip-path="url(#dc6b663d10)"><path fill="#9ba1a4" d="M 2.664062 22.425781 L 9.984375 22.425781 L 9.984375 29.605469 L 2.664062 29.605469 Z M 2.664062 22.425781 " fill-opacity="1" fill-rule="nonzero"/></g></g><g clip-path="url(#9f69a7559a)"><g clip-path="url(#4f07f147ca)"><path fill="#9ba1a4" d="M 0.519531 17.984375 L 7.835938 17.984375 L 7.835938 25.164062 L 0.519531 25.164062 Z M 0.519531 17.984375 " fill-opacity="1" fill-rule="nonzero"/></g></g><g clip-path="url(#0ad28b7459)"><g clip-path="url(#d9db4ae9b6)"><path fill="#9ba1a4" d="M 0.519531 17.46875 L 7.835938 17.46875 L 7.835938 24.644531 L 0.519531 24.644531 Z M 0.519531 17.46875 " fill-opacity="1" fill-rule="nonzero"/></g></g><g clip-path="url(#08b4f07e24)"><g clip-path="url(#bc2a43a0b7)"><path fill="#9ba1a4" d="M 0.371094 16.28125 L 7.691406 16.28125 L 7.691406 23.460938 L 0.371094 23.460938 Z M 0.371094 16.28125 " fill-opacity="1" fill-rule="nonzero"/></g></g><g clip-path="url(#29e99604dd)"><g clip-path="url(#759616a3b1)"><path fill="#9ba1a4" d="M 0.445312 16.207031 L 7.761719 16.207031 L 7.761719 23.386719 L 0.445312 23.386719 Z M 0.445312 16.207031 " fill-opacity="1" fill-rule="nonzero"/></g></g><g clip-path="url(#b247c5c2ae)"><g clip-path="url(#42fdc9df51)"><path fill="#9ba1a4" d="M 0.667969 17.023438 L 7.984375 17.023438 L 7.984375 24.203125 L 0.667969 24.203125 Z M 0.667969 17.023438 " fill-opacity="1" fill-rule="nonzero"/></g></g><g clip-path="url(#8142c0e47d)"><g clip-path="url(#130e1c3888)"><path fill="#9ba1a4" d="M 0.148438 17.171875 L 7.46875 17.171875 L 7.46875 24.351562 L 0.148438 24.351562 Z M 0.148438 17.171875 " fill-opacity="1" fill-rule="nonzero"/></g></g><g clip-path="url(#d703142669)"><g clip-path="url(#07707786e9)"><path fill="#9ba1a4" d="M -0.445312 16.28125 L 6.875 16.28125 L 6.875 23.460938 L -0.445312 23.460938 Z M -0.445312 16.28125 " fill-opacity="1" fill-rule="nonzero"/></g></g><g clip-path="url(#e478698a34)"><g clip-path="url(#57651a8ee0)"><path fill="#9ba1a4" d="M -0.886719 16.0625 L 6.429688 16.0625 L 6.429688 23.238281 L -0.886719 23.238281 Z M -0.886719 16.0625 " fill-opacity="1" fill-rule="nonzero"/></g></g><g clip-path="url(#61731063db)"><g clip-path="url(#535ff513bd)"><path fill="#9ba1a4" d="M -1.035156 16.0625 L 6.285156 16.0625 L 6.285156 23.238281 L -1.035156 23.238281 Z M -1.035156 16.0625 " fill-opacity="1" fill-rule="nonzero"/></g></g><g clip-path="url(#8a64d8efbf)"><g clip-path="url(#42f61a5c91)"><path fill="#9ba1a4" d="M -0.148438 15.839844 L 7.171875 15.839844 L 7.171875 23.019531 L -0.148438 23.019531 Z M -0.148438 15.839844 " fill-opacity="1" fill-rule="nonzero"/></g></g><g clip-path="url(#bb60234f49)"><g clip-path="url(#32f23261a1)"><path fill="#9ba1a4" d="M 0.222656 15.542969 L 7.542969 15.542969 L 7.542969 22.722656 L 0.222656 22.722656 Z M 0.222656 15.542969 " fill-opacity="1" fill-rule="nonzero"/></g></g><g clip-path="url(#bec367b814)"><g clip-path="url(#9ed03a783c)"><path fill="#9ba1a4" d="M -0.886719 15.691406 L 6.429688 15.691406 L 6.429688 22.871094 L -0.886719 22.871094 Z M -0.886719 15.691406 " fill-opacity="1" fill-rule="nonzero"/></g></g><g clip-path="url(#a44683ad06)"><g clip-path="url(#0df67288a9)"><path fill="#9ba1a4" d="M -1.035156 16.875 L 6.285156 16.875 L 6.285156 24.054688 L -1.035156 24.054688 Z M -1.035156 16.875 " fill-opacity="1" fill-rule="nonzero"/></g></g><g clip-path="url(#ff9c46f6cb)"><g clip-path="url(#1a853eb777)"><path fill="#9ba1a4" d="M 0.296875 21.167969 L 7.617188 21.167969 L 7.617188 28.347656 L 0.296875 28.347656 Z M 0.296875 21.167969 " fill-opacity="1" fill-rule="nonzero"/></g></g></svg>