<svg width="312" height="263" viewBox="0 0 312 263" fill="none" xmlns="http://www.w3.org/2000/svg">
<g filter="url(#filter0_d_1_283)">
<path fill-rule="evenodd" clip-rule="evenodd" d="M200.591 108.642C200.309 108.788 200.413 109.215 200.731 109.215H232.63C233.63 109.215 234.356 110.165 234.094 111.13L225.925 141.243C225.745 141.904 225.145 142.363 224.46 142.363H131.432C131.425 142.363 131.419 142.357 131.419 142.349C131.419 142.342 131.413 142.336 131.405 142.336C130.969 142.354 130.525 142.363 130.081 142.363H42.19C41.2261 142.363 40.5064 141.476 40.705 140.532L47.0468 110.42C47.1947 109.718 47.8142 109.215 48.5319 109.215H130.081C132.47 109.215 134.177 106.307 131.873 103.847C131.622 103.579 131.259 103.451 130.892 103.451H50.6905C49.7259 103.451 49.0061 102.563 49.2058 101.619L63.8915 32.2157C64.0399 31.5141 64.6591 31.0122 65.3762 31.0122H143.788C144.754 31.0122 145.474 31.9028 145.272 32.8474L138.828 62.963C138.678 63.6629 138.06 64.163 137.344 64.163H83.4745C82.6364 64.163 81.9569 64.8425 81.9569 65.6807V68.7827C81.9569 69.6208 82.6364 70.3003 83.4745 70.3003H130.081C144.106 70.3003 156.262 78.3201 162.211 90.024C162.608 90.8065 163.569 91.1352 164.343 90.721L200.783 71.22C202.022 70.5765 202.802 69.2956 202.802 67.8994C202.802 65.8355 201.129 64.163 199.068 64.163H146.081C145.115 64.163 144.395 63.2725 144.597 62.3279L151.041 32.2123C151.191 31.5123 151.809 31.0122 152.525 31.0122H199.068C219.423 31.0122 235.925 47.5269 235.925 67.8994C235.925 81.6885 228.24 94.3272 216.002 100.665L200.591 108.642Z" fill="url(#paint0_linear_1_283)"/>
<path d="M253.075 1.17146L271.533 30.8682C271.715 31.1626 271.715 31.5359 271.533 31.8304L253.075 61.5271C252.72 62.1008 251.886 62.1008 251.527 61.5271L233.07 31.8304C232.888 31.5359 232.888 31.1626 233.07 30.8682L251.527 1.17146C251.883 0.597796 252.717 0.597796 253.075 1.17146Z" fill="#F8F5F5"/>
</g>
<defs>
<filter id="filter0_d_1_283" x="0.671875" y="0.741211" width="310.998" height="261.622" filterUnits="userSpaceOnUse" color-interpolation-filters="sRGB">
<feFlood flood-opacity="0" result="BackgroundImageFix"/>
<feColorMatrix in="SourceAlpha" type="matrix" values="0 0 0 0 0 0 0 0 0 0 0 0 0 0 0 0 0 0 127 0" result="hardAlpha"/>
<feOffset dy="80"/>
<feGaussianBlur stdDeviation="20"/>
<feColorMatrix type="matrix" values="0 0 0 0 0 0 0 0 0 0 0 0 0 0 0 0 0 0 0.25 0"/>
<feBlend mode="normal" in2="BackgroundImageFix" result="effect1_dropShadow_1_283"/>
<feBlend mode="normal" in="SourceGraphic" in2="effect1_dropShadow_1_283" result="shape"/>
</filter>
<linearGradient id="paint0_linear_1_283" x1="43.6282" y1="71.123" x2="208.24" y2="186.698" gradientUnits="userSpaceOnUse">
<stop offset="0.005" stop-color="#AA01A3"/>
<stop offset="0.0051" stop-color="#B405AD"/>
<stop offset="1" stop-color="#4D9CF8"/>
</linearGradient>
</defs>
</svg>
